<?xml version="1.0" encoding="utf-8"?>
<!-- Generator: Adobe Illustrator 26.5.0, SVG Export Plug-In . SVG Version: 6.00 Build 0)  -->
<svg version="1.1" id="Layer_1" xmlns="http://www.w3.org/2000/svg" xmlns:xlink="http://www.w3.org/1999/xlink" x="0px" y="0px"
	 viewBox="0 0 446.8 324.6" style="enable-background:new 0 0 446.8 324.6;" xml:space="preserve">
<path style="fill:#E89ACA;" d="M59,248.9l234.7-77.2c0,0,0,0,0,0.1c1.7,2.6-0.8,2.2,1.2,4.8c3.8,6.1,10.9,5.2,12.2,4.8
	c1.3-0.4,1.7-1.3,0.4-1.7c-4.2-7.4,2-12.4,7.2-14.8l5-1.7l32.9-10.8l4.1-1.4c0,0,0.4-0.3,1.3-0.7c10.7,4.3,17.7-0.1,19.4-3.1
	c4.3,0.9,8.8,3.2,12.8,7.9c7,8.1,18.3,27.6,23.7,50.4c12.4-49.1,19.3-105.6-4.1-164.5s-46.6-4.6-83.5-24.6s-83.9-24.8-110.9,3.2
	s-51.2,23.3-101,60.9s-76.3,82.6-76.3,82.6c-10.9,15.9,15.7,18,13.9,42.4c-1.8,24.3-38.2,38.3-29.7,75.4c6.2,27,37.1,24.1,73.8,20.8
	c-5.7-1.7-11.4-3.4-17.1-5.3C53.6,280.6,44.8,258.5,59,248.9z"/>
<path style="fill:#D5905D;" d="M216.6,78.1c0,0-5.7,0.4-3-17.8s4.3-24.3,15.2-28.7s23.9-7,28.7-2.6c4.8,4.3,3.9,4.3,10,9.6
	c6.1,5.2,10.9,6.5,12.6,11.7s3,22.2,0,27.2s-17.4,10.6-18.7,8c-1.3-2.6,0.9-8.3,0.9-8.3l-13.5-10.9l-22.6,3L216.6,78.1z"/>
<path style="fill:#D88D6F;" d="M235.3,107.7c1.2-1.2,2.6-2.3,3.5-3l-2.2-4.8l-17-26.1l-2.4,2.4C216.7,81.1,216.7,97.1,235.3,107.7z"
	/>
<path style="fill:#F3A27C;" d="M238.8,104.6c-1,0.7-2.3,1.8-3.5,3c-18.5-10.5-18.5-26.6-18-31.5l-0.2,0.2c0,0,0,10.9-10,18.3
	c-0.9,2.2,8.3,17,8.3,17l16.5,8.7l9.6-10.2L238.8,104.6z"/>
<polygon style="fill:#FAF5F2;" points="219.2,113.3 239.3,113.3 234.8,198.5 219.6,197.6 "/>
<path style="fill:#F3A27C;" d="M191.3,86.2l7.9-8.5c0,0,0.4-3,4.3-2.6c3.9,0.4,5.7-1.3,6.5-3c0.9-1.7,2.2-3.9,3.9-4.3s3-2.6,1.3-2.6
	s-3.5,1.3-3.9,1.3s1.7-6.1,1.7-7.4s0-4.5,3-5.1s6.5-1,6.5-1.9s2.1-1.3,1.5-2.4c-0.6-1.1-0.6-2-1.5-2s-0.4-2.2-1.7-2.2s-6.5,0-7,0.4
	c-0.4,0.4-4.3-0.4-5.7,0.9c-1.3,1.3-7.8,8.7-8.3,10.4c-0.4,1.7-1.3,3.5-3,4.8s-17.1,14.1-17.1,14.1l11,9.8L191.3,86.2z"/>
<path style="fill:#8793A6;" d="M194.9,100.7c0,0,3-8.3,8.7-9.6c3.5,0,4.5,7.8,13.6,16.5c2.4,0,3.4-0.4,3.8,1.7s0,3.7,0,3.7l0.9,84.5
	L171,212.3c0,0-1.7-14.3-1.7-28.7c0-14.3,1.3-27.8,2.6-30.9s3.5-9.6,0.4-11.3c-3-1.7-9.6-4.3-9.6-4.3l-0.4-52.2l15.6-10.4
	c0,0,2.5-1.7,3,0s5.1,7.2,7.7,8.9c2.6,1.7,4.8,3,4.3,3.5c-0.4,0.4-9.2,6.7-10.7,11.2c-1.2,2.4-1,4.5-0.2,4.9c0.9,0.4,1.7,0,3-1.3
	s3.5-2.2,4.8-1.3C191.2,101.4,194.9,100.7,194.9,100.7z"/>
<path style="fill:#8793A6;" d="M240.5,99.4l6.1,6.5l3,6.5c0,0,3.5-1.3,7,3.5s3.9,7.4,8.3,18.3c4.3,10.9,4.8,13,7,15.6
	s0.9,6.1,2.2,7.8c1.3,1.7,3.5,5.7,3.5,13.5s-6.1,13-6.1,13l-40.9,11.6l3-68.1L240.5,99.4z"/>
<path style="fill:#F3A27C;" d="M218.8,75.1c0,0-2.2,6.5,1.7,13s10,16.1,12.2,17s9.6-3.5,9.6-3.5s13.5-9.6,14.3-10.9
	c0.9-1.3,1.8-6.1,4.4-7.8c2.6-1.7,5.6-5.7,5.6-7s-8.7-14.8-8.7-14.8s-7.4-10.4-13-8.3s-13.5,5.7-19.1,12.6c-1.3-1.3-0.9-7.4-3-7.8
	s-6.5-0.9-6.5,3.5c0,4.3,1.7,12.2,2.2,13C218.8,75.1,218.8,75.1,218.8,75.1z"/>
<path style="fill:#7B889B;" d="M260.9,182.9c0,0-10-2.6-10.9-15.6c-0.4,3-0.4,12.2,11.7,18.7C263.1,183.7,260.9,182.9,260.9,182.9z"
	/>
<polygon style="fill:none;stroke:#69798C;stroke-width:0.8693;stroke-miterlimit:10;" points="187.9,139.8 209.2,140.3 209.2,160.7 
	197.9,168.1 186.2,158.5 "/>
<path style="fill:#D88D6F;" d="M236.1,103.3c-2.2-4.8-6.1-4.3-6.1-3.5c0,0.4,0.7,2.7,1.6,5.2l5-0.6
	C236.5,104.1,236.3,103.7,236.1,103.3z"/>
<path style="fill:#F3A27C;" d="M252.2,125.9c0,0,0.9-11.8-0.9-14.6c-1.7-2.8-1.7-4.5-1.7-8s-2.6-2.6-3-1.7s-1.3,9.1-2.6,9.6
	c-1.2,0.4-5.4-2.5-7.7-6.7c-0.2-0.4-0.4-0.7-0.6-1.1c-2.2-4.8-6.1-4.3-6.1-3.5c0,0.4,0.7,2.7,1.6,5.2c0.9,2.6,2.1,5.4,2.7,6.6
	c0.9,1.7,1.3,2.2,0.9,2.2c-0.4,0-3.5,1.7-3,3c-0.4,0.9-1.7,1.3-1.7,2.6c-0.4,0.4-1.6,1-0.8,3.8s1.7,7.1,6,10.1s4.8,3.2,6.1,6.8
	s10,24.5,10,24.5s16.1-3.6,15.9-17C261.1,139.5,252.2,125.9,252.2,125.9z"/>
<path style="fill:#F6BF6F;" d="M161,151.6c0,0,1.3,6.5,2.6,10.4s1.7,8.3,0.4,9.6s-10.9,5.2-10.9,5.2s0,13.9-2.2,17
	c-2.2,3-7.4,4.3-8.7,12.6s-1.7,16.1-1.7,16.1l-76.1,31.7c0,0,2.2-26.5,7-39.1S71,170.3,71,170.3s-2.6-14.4,2.8-21.8
	c5.4-7.4,7.6-14.8,19.3-22.6c12.2-5.2,24.8,1.7,24.8,1.7l37.6,11.7l5,3L161,151.6z"/>
<path style="fill:#EBE1D8;" d="M414.2,205.5c-12.4,49.1-37.1,52.6-26.9,85.4l0,0c6.8-4.9,12.3-10.1,16.3-15.4
	C419.3,254,419.6,228.1,414.2,205.5L414.2,205.5z"/>
<path style="fill:#EBE1D8;" d="M96.3,301.7c68.9,20.3,130.8,25.7,181.1,21.8c-40.4-17.5-85.5-23.1-138.4-24
	C124.6,299.2,110.1,300.4,96.3,301.7z"/>
<path style="fill:#EBE1D8;" d="M414.2,205.5L414.2,205.5c-5.5-22.9-16.7-42.3-23.7-50.4c-4-4.6-8.5-6.9-12.8-7.9
	c-1.7,3-8.7,7.3-19.4,3.1c-0.8,0.4-1.3,0.7-1.3,0.7l-4.1,1.4L320,163.2l-5,1.7c-5.2,2.4-11.4,7.4-7.2,14.8c1.3,0.4,0.9,1.3-0.4,1.7
	s-8.4,1.3-12.2-4.8c-2-2.6,0.5-2.2-1.2-4.8c0,0,0,0,0-0.1L59,248.9c-14.2,9.6-5.3,31.7,20.2,47.4c5.8,1.9,11.5,3.6,17.1,5.3
	c13.8-1.2,28.3-2.5,42.7-2.3c52.9,0.9,98,6.5,138.4,24c49-3.8,87-16.4,109.8-32.5l0,0C377,258.1,401.8,254.6,414.2,205.5z"/>
<path style="fill:#F1D7B0;" d="M403.9,70.2c-0.5-0.2-0.9-0.4-0.9-0.4C403.3,69.9,403.6,70.1,403.9,70.2c1.4,0.6,4.3,2.1,6,4.5
	c0.5-3.9-0.2-9-4.7-9.6c-3.9-0.4-2.6,3.5-5.7,3.9c-3,0.4-10,3.5-12.2,3c-2.2-0.4-10.9,2.2-11.7,6.1S367,122,367,122l3,22.2l8,2
	c0,0,2.4-4.1,2.8-13.3c0.4-9.1,0.9-38.7,4.3-41.7c3.5-3,12.6-2.6,14.8-4.3c2.2-1.7,7.8-5.2,9.1-8.7c0.3-0.7,0.5-1.6,0.7-2.5
	C408.4,74.2,406.1,71.3,403.9,70.2z"/>
<path style="fill:#D88268;" d="M217.9,243.7c0,0,4,3.9,3.1,9.1C220.9,251.5,220.1,246.3,217.9,243.7z"/>
<path style="fill:#D88268;" d="M215.7,245.9c0,0,2.6,3,2.6,7.4C217.5,251.5,217.5,248.1,215.7,245.9z"/>
<path style="fill:#D88268;" d="M212.2,247.2c0,0,4.8,2.6,3,9.6C214.8,254.2,215.7,252.4,212.2,247.2z"/>
<path style="fill:#36393F;" d="M307.9,75.5c0,0,2.4-2.1-0.3-4.9c-2.7-2.9-4.9-4.2-4.9-6.8s-1.7-1.3-2.2-3.9c-0.4-2.6-0.4-7,5.2-13
	c5.7-6.1,6.5-8.7,6.5-10.9s-0.4-12.2,4.3-14.8c4.8-2.6,9.1-3.5,10-4.8s7-3,11.3-2.2s3.5,1.7,5.7,0.9c2.2-0.9,8.3-4.8,16.5,5.2
	s11.3,10.4,13.5,21.3s0,11.2,0,14.5s-0.4,6.4,0,9.4s3,6.1,0,10.9s-3.5,5.7-6.1,7.8s-3,0.4-5.2,1.3s-4.8,3-7.8,3.5
	C351.3,89.4,307.9,75.5,307.9,75.5z"/>
<path style="fill:#F1D7B0;" d="M362.6,183.3c-3.5-4.3-8.3-2.6-12.6-3c-4.3-0.4-6.1-2.2-6.1-2.2L325,166.6l-1.5-5.4l-14.8,1.7
	l-9.4,3.7l3.7,12.8l5,0.4c0,0,21.5,8.7,25.9,10.5s5.7,4.3,7.8,6.5s7,5.2,8.7,6.5s1.3-1.3,2.2-2.2c0,0,0,0,0.1,0
	c-0.7-1.1-1.7-2.6-2.2-3.4c1.2,0.6,2.1,2.2,2.7,3.2c0.8-0.2,2,0.5,3.4-0.6c0.7-0.5,0.8-1,0.9-1.4c-1.1-2.1-3.2-4.8-3.9-5.1
	c1.4,0,3.3,3.1,4.1,4.3c0.1-0.1,0.3-0.3,0.7-0.4c1.7-0.4,1.3-1.3,1.3-3.9c0-2.6-1.7-3.9-0.9-4.3c0.9-0.4,4.8,1.3,6.5,3.5
	s6.1,3.5,7,2.2C373.1,193.7,366.1,187.7,362.6,183.3z"/>
<path style="fill:none;" d="M319.9,163.1c-1,0.1-2.9,0.7-5,1.7L319.9,163.1z"/>
<path style="fill:none;" d="M352.9,150.1c0,0.7,0,1.4,0,2.2l4.1-1.4c0,0,0.4-0.3,1.3-0.7c-1-0.4-2.1-0.9-3.2-1.5
	C354.2,147,352.9,147,352.9,150.1z"/>
<path style="fill:#D65F37;" d="M319.9,163.1l32.9-10.8c0-0.8,0-1.6,0-2.2c0-3,1.3-3,2.2-1.3c1.1,0.6,2.2,1.1,3.2,1.5
	c3-1.5,11-4.9,19.4-3.1c0.2-0.4,0.4-0.7,0.4-1c-10.4-12.2-10.2-27.6-11.1-28s-8.7-22.6-10.9-27.4c-2.2-4.8-3.5-4.3-6.1-5.2
	c-2.6-0.9-13.8-5-13.8-5l-24.1-10c0,0-1.7,1.5-3.8,3.2c-4.1,3.3-16.8,6.3-21.4,8.2c-4.6,1.9-9.7,9-12.1,20.2s-0.2,19.6,1.1,21.8
	c1.3,2.2,0,7.4,4.3,19.6c4.3,12.1,11.6,25.5,13.4,28.2l21.2-7C317,163.8,318.9,163.2,319.9,163.1z"/>
<path style="fill:#D65F37;" d="M358.2,150.2c10.7,4.3,17.7-0.1,19.4-3.1C369.2,145.3,361.2,148.7,358.2,150.2z"/>
<path style="fill:#D65F37;" d="M295,176.6c3.8,6.1,10.9,5.2,12.2,4.8c1.3-0.4,1.7-1.3,0.4-1.7c-4.2-7.4,2-12.4,7.2-14.8l-21.2,7
	c0,0,0,0,0,0.1C295.5,174.4,292.9,174,295,176.6z"/>
<path style="fill:#F1D7B0;" d="M314.8,66.7c-1.2,3.2-3,6.4-5.6,8.4c0.9,2.2-1.3,3,4.8,7.8c6.1,4.8,12.2,7,12.6,10s2.2,0.4,2.6-0.4
	s3.9-1.7,5.2-3.5c0.7-1,1-3.5,1.2-5.6C332.1,83.8,322,83.4,314.8,66.7z"/>
<path style="fill:#D8BA93;" d="M317,57.7c0,0-0.5,4.4-2.2,9c7.2,16.7,17.3,17.1,20.8,16.6c0.1-1.7,0.1-3.1,0.1-3.1L317,57.7z"/>
<g>
	<polygon style="fill:#FBFDFF;" points="109.8,246.9 174.9,224 232.2,274.6 164.8,299.4 	"/>
	<path style="fill:none;stroke:#444444;stroke-width:0.8693;stroke-linecap:round;stroke-miterlimit:10;" d="M166.8,290.9
		c0,0,1.3-4.8,8.7-4.8s14.3-0.9,16.5-4.8s5.2-7,10.9-7s9.5-0.4,10.2-3.5"/>
	<path style="fill:none;stroke:#444444;stroke-width:0.8693;stroke-linecap:round;stroke-miterlimit:10;" d="M200.7,259.6
		c0,0-3,1.7-6.1,7s-8.6,3.9-14.9,4.3c-6.4,0.4-8.1,4.3-11.1,7c-3,2.6-5.5,2.6-7.8,3"/>
	<path style="fill:none;stroke:#444444;stroke-width:0.8693;stroke-linecap:round;stroke-miterlimit:10;" d="M152.8,274.8
		c9.2-5.6,8.8-2.1,16.2-6s4.9-4.1,11.2-7c6.2-3,8.1-0.3,11.9-2.1c3.9-1.7,4.9-3.5,4.8-5.4"/>
	<path style="fill:none;stroke:#444444;stroke-width:0.8693;stroke-linecap:round;stroke-miterlimit:10;" d="M190,246
		c0,0-6.3-1.6-10.6,2.5s-3.7,7.2-9.5,9.6c-5.7,2.4-10.1-1.1-14,2.4s-2.4,8.3-7.1,9.8"/>
	<path style="fill:none;stroke:#444444;stroke-width:0.8693;stroke-linecap:round;stroke-miterlimit:10;" d="M135.8,258.1
		c0,0,6.4-5,11.3-3.9c4.9,1.1,8.4,2.4,11-2c2.6-4.3,0.7-8.6,6.7-8.6c5.9-0.1,9,2.4,12.5-0.4s5.8-4.4,5.8-4.4"/>
	<path style="fill:none;stroke:#444444;stroke-width:0.8693;stroke-linecap:round;stroke-miterlimit:10;" d="M171.6,231.3
		c0,0-1.1,7.6-7.7,8.2c-6.6,0.5-9.1-4.3-15,0.9s-4.4,6.8-10.9,8s-11.2,1.6-11.6,2.9"/>
</g>
<path style="fill:#F4A082;" d="M161.8,171.1c0,0,3.5,18.7,4.3,22.2c0.9,3.5,1.3,8.3,6.5,12.2s17.6,13.3,27.6,23.7
	c3.5,3,7,7.4,9.1,8.3c2.2,0.9,11.3,4.8,12.2,10s-0.4,7.4-0.9,7.4s-0.9,0.4-0.9,0.9s-1.3,2.6-1.7,2.6s-1.3,2.2-2.2,3
	c-0.9,0.9-2.2,0.9-2.6,0.4s-0.7,0.1-1.4,0.3c-0.7,0.1-2.5,0.1-2.5-1.2c0-1.3,1.3-5.7,0-7.4s-4.3-3.5-4.8-3.5
	c0.4,0.4,1.7,6.5,0.9,7.4c-0.9,0.9-1.7,1.3-2.6,0.9c-0.9-0.4,0-1.7-0.4-3s-1.7-1.7-3-3.5c-1.3-1.7-2.2-4.3-2.6-6.1
	s-3.5-4.3-13.5-10.4c-10-6.1-23.5-13.9-25.6-16.5c-2.2-2.6-9.1-7.4-10.9-23s3-22.6,3-22.6L161.8,171.1z"/>
<path style="fill:#F4A082;" d="M123.4,152.5c-0.2,4.4,5.4,10.8,7,7.5c1.6-3.3,10.6-15,10.6-15l0,0c-2.6-1.4-10.5-5.8-15.6-9.9
	C124.8,139.6,123.5,149.2,123.4,152.5z"/>
<path style="fill:#D88268;" d="M144.1,140l-15.3-14.9l-3,7.8c0,0-0.1,0.9-0.3,2.3c5.1,4.1,13,8.5,15.6,9.9l1.5-1.1L144.1,140z"/>
<path style="fill:#8A4A40;" d="M157.5,77.7c0,0-0.4-23.9-16.1-19.6c-9.1,3.9-8.3,9.5-8.3,9.5s-17,0,0,13.1
	c-5.1,3.1-11.3,3.9-17.3,25.2c-6.1,21.3-28.7,8.3-31.7,18.7s8.7,6.5,15.6,4.8c7-1.7,3,7.4,6.5,6.5s4.9,0.4,4.2,3.7
	s-2.5,16.3,4.5,17.6s12-12,12.4-15s0-13.5,0-15.2s19.1,3,19.1,3l11.1,12.8c0,0-1.1,7.6,1.1,9.8s6.1-0.4,5.7-3
	c-0.4-2.6,0.4-9.1,1.7-10.2c1.3-1.1,4.3-4.1,4.8-7.6c0.4-3.5,0.4-7.8,2.2-10.9c1.7-3,4.8-3.9,3.9-8.3c-0.9-4.3-3.5-1.3-0.9-6.5
	s0.9-7.4-0.9-8.7c-1.7-1.3,0-5.2-2.6-7.4C169.9,87.9,163.8,79.2,157.5,77.7z"/>
<path style="fill:#F4A082;" d="M154.4,146.4c0,0,7.8-5.7,10.9-10.9c3-5.2,5.7-10,5.2-26.5c-2.2-0.4-6.1-2.6-7.4-8.7
	c-2.6,3-9.1,3.9-14.3,0.9c-3.5,1.7-6.5,1.3-7.8,3s-4.2,10.9-10.6,13.1c-6.4,2.2-6.4,7.8-4.7,9.1c1.7,1.3,12.6,20.4,18.3,21.7
	C149.6,149.4,153.1,147.2,154.4,146.4z"/>
<polygon style="fill:#F4A082;" points="145.7,141.6 144.1,140 142.5,144 "/>
<path style="fill:#F4A082;" d="M143.6,233.7c0-2.2-2.6-7.8-5.2-9.6c-2.6-1.7-10-0.9-11.7-1.3s-2.2-0.4-6.1-0.4
	c-13.5-3.5-28.7-12.2-30.9-13.9s-1.3-3.5-0.9-5.2s2.6-14.3,4.3-17.8c1.7-3.5,3.9-10.4,0.4-17c-8.7-9.1-20.4-7-20.4-7
	s-5.7,40-6.1,45.6c-0.4,5.7,0.9,13,3,14.8s28.3,10.4,28.3,10.4s15.2,4.3,17.4,6.1c2.2,1.7,1.7,3,3,4.3s4.8,2.2,6.5,2.2
	c1.2,0,1.5-0.9,1.6-1.5c-1.7-1.2-4.4-2.6-5.6-2.9c2.7-1,5.3,1.3,6.4,2.4c0.7,0,1.6,0.1,2.6-0.1c1.1-0.2,2-0.8,2.6-1.3
	c-2.5-2.2-8-5.1-9.8-5.8c5.1-0.7,9.2,3.3,10.9,5.1c0.7,0.1,2,0.6,3-0.4c0.4-0.4,0.7-0.7,1-0.8c-3.4-4.1-10.6-9.1-11-10.5
	c9.2,6.1,11.5,9.3,12,10.4c0.1,0,0.1,0,0.2,0c0.9,0,3.5-0.9,3-1.7C141.8,237.2,143.6,235.9,143.6,233.7z"/>
<path style="fill:#D88268;" d="M127,229.4c0.4,1.4,7.6,6.4,11,10.5c0.4-0.2,0.6-0.1,1-0.1C138.5,238.7,136.3,235.5,127,229.4z"/>
<path style="fill:#D88268;" d="M123.2,235.9c1.7,0.7,7.3,3.6,9.8,5.8c0.3-0.2,0.5-0.5,0.6-0.6s0.3-0.1,0.5-0.1
	C132.4,239.2,128.2,235.2,123.2,235.9z"/>
<path style="fill:#D88268;" d="M121.4,240.7c1.2,0.3,3.9,1.7,5.6,2.9c0.1-0.3,0.1-0.5,0.1-0.5s0.3,0,0.8,0.1
	C126.7,242,124.1,239.7,121.4,240.7z"/>
<g>
	<polygon style="fill:#3E4347;" points="148.8,239.4 115.3,205.5 111.4,208.1 145.7,242.4 145.8,242.4 148.9,239.5 	"/>
	<polygon style="fill:#443C38;" points="155.3,248.5 153.5,246 152.8,246.9 	"/>
	<polygon style="fill:#E3C9B1;" points="153.5,246 148.9,239.5 145.8,242.4 152.8,246.9 	"/>
</g>
<path style="fill:#F1D7B0;" d="M316.6,63.3c0,0-0.9-5.2,0.9-9.6c0.9-2.6-3.9-0.4-3.9-3s-1.3-9.6,3.5-12.6s4.3,7.8,4.3,7.8s3-3,6.1-3
	s7-0.4,10-3s7-6.5,7.4-8.3s2.6,0.4,2.6,1.3c0,0.9,1.3,3.5,5.7,5.7c4.3,2.2,8.3,6.1,8.3,7.8s-1.1,8.4-2.5,10.1s-1.4,0.4-2.3,3
	s-2.4,5.9-5,9.8s-9.1,10-13,11.7s-8.3,1.3-11.3-1.3C324.2,77,319,70.9,316.6,63.3z"/>
<path style="fill:#DDC29F;" d="M353.5,193.7c0.8,0.4,2.8,3,3.9,5.1c0-0.3,0-0.6,0.2-0.9C356.8,196.8,354.9,193.7,353.5,193.7z"/>
<path style="fill:#DDC29F;" d="M350.5,197.6c0.5,0.8,1.5,2.3,2.2,3.4c0.1-0.1,0.3-0.2,0.4-0.2C352.6,199.9,351.6,198.2,350.5,197.6z
	"/>
<path style="fill:#DDC29F;" d="M399.9,80.5c0,0,6.2-4.1,1.8-7.6C403.9,73.8,406.8,76.4,399.9,80.5z"/>
<path style="fill:#F1D7B0;" d="M403.9,70.2c-0.3-0.2-0.6-0.3-0.9-0.4C403.1,69.9,403.4,70,403.9,70.2z"/>
<path style="fill:#DDC29F;" d="M403.9,70.2c2.1,1.1,4.5,4,5.9,5.4c0-0.3,0.1-0.6,0.1-0.9C408.2,72.4,405.4,70.9,403.9,70.2z"/>
<path style="fill:#BF5032;" d="M350,103.8c0,0,3.5,6.2,3.7,13.8c0.2,7.6-2,11.8,0,13.5s4.2,9.2,3.7,14.5c-0.4,5.2-3.7,5.9-3.7,5.9
	L340,124.3l8.7-16.1L350,103.8z"/>
<path style="fill:#D65F37;" d="M349.2,102.9c0,0,3.5,6.4,3.7,14.3s-2,12.2,0,13.9s4.2,9.6,3.7,15c-0.4,5.4-3.7,6.1-3.7,6.1
	l-13.7-28.1l8.7-16.7L349.2,102.9z"/>
<path style="fill:#BF5032;" d="M352.9,130.4c0,0-29.8-7.4-43.7,7.1C310.9,134.8,334.4,126.6,352.9,130.4z"/>
<g>
	<path style="fill:#F0E2D5;" d="M374,150.3c0,0-6.2,8.1-0.3,14.4c0.4,0.8-30.7,15.7-30.7,15.7l-7.5-6.7l2.8-13.8l12.6-4.7L374,150.3
		z"/>
	<path style="fill:#F0E2D5;" d="M366.6,176.5c0,0-1.4-3-1.3-7c-2.1,2.2-21.5,10.6-21.5,10.6l-10.6-2l-2.4,5.1l1.6,9.8l3.5,2.4
		L366.6,176.5z"/>
	<path style="fill:#F0E2D5;" d="M363.8,189.5c0,0-2-2.8-1.2-7.9c-2.4,0.8-6.7,2.8-6.7,2.8l-17.9,11l-9.6,0.4l-1.2,8.3l1.6,8.3
		l3.5,0.8L363.8,189.5z"/>
	<path style="fill:#F0E2D5;" d="M369.4,228.1c0,0-2.9-5.5-1.4-11c-2.6,0.4-34.8,20.9-34.8,20.9l3.9,12.2l3.5,0.8L369.4,228.1z"/>
	<path style="fill:#6AADA3;" d="M274.1,220.6c0,0-7.9,13.4-1.6,18.5c8.3,1.6,69.3,13.8,69.3,13.8l31.9-24.8l-5.7-1.8l1.2,2l-28.3,22
		c0,0-5.9-1.6-2.4-13c7.5-5.1,33.5-22,33.5-22l-14.6-2.8L274.1,220.6z"/>
	<path style="fill:#F0E2D5;" d="M363.4,206.5c0,0-2.8-6.3-0.8-14.2c-4.7,3.5-31.9,23.7-31.9,23.7l0.8,6.6l3.1,6.3l4.7-2L363.4,206.5
		z"/>
	<path style="fill:#CB9A72;" d="M267,189.5c0,0-7.5,5.5-3.1,15.7c3.5,0.8,70.5,8.7,70.5,8.7l34.3-24.8l-5.5-1.2l0.6,1.4l-31.9,23.2
		c0,0-5.5-5.9,1.2-16.5C326.6,194.5,267,189.5,267,189.5z"/>
	<path style="fill:#FD5922;" d="M277.2,169.1l-7.1,3.5c0,0-8.3,4.7-3.5,17.7c3.5,0.8,71.3,6.7,71.3,6.7l33.9-20.9l-5.7-1l0.4,1.2
		l-30.3,18.5c0,0-6.7-5.7-0.6-15.7C332.3,175.5,277.2,169.1,277.2,169.1z"/>
	<path style="fill:#FEB236;" d="M372.1,163.2c0,1.2,1.6,1.6,1.6,1.6l-31,14.7c-1.5-2.2-2.7-6.4-0.5-14.3l33.9-15.7l-57.9-3.5
		l-30.1,8.6l0,0l-7,2c0,0-10.2,5.5-3.1,15l67.3,10.2c0,0,0,0-0.1-0.1l0.1,0.1l34.3-17.7C379.6,164,373.3,162.8,372.1,163.2z"/>
	<path style="fill:#99BF52;" d="M364.9,205.3l-2-0.6l0.5,1.8l-1.6,1.3l0,0l-25.7,20.1c0,0-5.9-1.2-1.6-14.6
		c-1.2,0-65.6-8.9-65.6-8.9s-7.1,9.8-0.4,17.7c7.1,0.4,68.1,7.5,68.1,7.5l30.7-24L364.9,205.3z"/>
</g>
</svg>
