<?xml version="1.0" encoding="utf-8"?>
<!-- Generator: Adobe Illustrator 26.5.0, SVG Export Plug-In . SVG Version: 6.00 Build 0)  -->
<svg version="1.1" id="Layer_1" xmlns="http://www.w3.org/2000/svg" xmlns:xlink="http://www.w3.org/1999/xlink" x="0px" y="0px"
	 viewBox="0 0 446.8 324.6" style="enable-background:new 0 0 446.8 324.6;" xml:space="preserve">
<path style="fill:#635249;" d="M156.4,227.1c-0.8-6.4-0.3-26-2.8-31.1s-9.3-61.4-12.9-64.5s-9.3-22.7-9.3-22.7L84.7,74.3l-7.1,2.4
	l-8.9,19.4c0,0-5.1,10-8.7,20.9c-3.6,10.8-1.5,66.1-1.5,66.1s3.4,47.3,4.8,54.6c1.4,7.3,5.8,27.5,5.4,35s2.7,7.5,2.7,7.5V295
	c19.2,1.6,47.9,8.4,73.8,16.1c5.3,1.6,10.2,2.4,15,2.6v-27.1C160.2,286.6,157.1,233.5,156.4,227.1z"/>
<path style="fill:#A4F7C2;" d="M346.4,70.1c-77.6-53.6-46.3,4.1-126.2-10.1S166.4,18.4,114.9,7.6s-55.7,65.8-76.2,90
	c-14.6,17.2-2.4,29.2,5.5,53.6s-18.8,51-39.9,83s41.3,60.4,59.8,60.5c2.2,0,4.7,0.1,7.3,0.3v-14.9c0,0-3.1,0-2.7-7.5s-4-27.6-5.4-35
	c-1.4-7.3-4.8-54.6-4.8-54.6s-2.1-55.2,1.5-66.1c3.6-10.8,8.7-20.9,8.7-20.9l8.9-19.4l7.1-2.4l46.6,34.5c0,0,5.7,19.6,9.3,22.7
	s10.3,59.4,12.9,64.5s2.1,24.8,2.8,31.1c0.8,6.4,3.8,59.5,3.8,59.5v27.1c12.3,0.6,23.6-2.5,36.9-6.1c-0.2-3.2-0.6-7.6-1.2-13
	c-1.5-13.4-5.7-16.5-23.7-29.4c-18.1-12.9-11.4-43.4-7.2-49.6c1.9-2.8,4.9-7.5,7.4-12.2c1.4-0.8,2.4-1.5,2.9-1.8
	c3.1-2.1,28.4-29.4,32.5-34.1c4.1-4.6,6.7-7.7,15-9.3s12.4-9.8,15-11.9c2.6-2.1,10.3-15.5,11.1-16.8c0.4-0.6,0.7-1.8,0.9-3.1
	c3.1,16,5.5,51,7.6,58.1c2.6,8.8,3.1,53.7,4.6,63c1.5,9.3,9.3,18.6,14.5,29.4c3.7,7.8,4.1,23.7,4,32.1c5.5,3.2,12.3,6.9,22.4,10.7
	c34.1,12.9,55.2-3.1,80.5-17.5c10.7-6.1,21.4-1.3,30.9,3.8c-2.7-3.8-6.8-9.3-11.3-14.7c-7.7-9.3-26.8-20.6-26.8-20.6
	s-31-31-29.5-34.9s0.6-11.6,0.1-21.9s2.1-27.4,2.1-27.4l8.8-16.5c0,0,37.7,5.7,49,12.4c8.4,5,21.6,19.5,35.2,33
	c-0.3-8.8-0.1-17.8,1.2-26.8C448.7,147,424,123.7,346.4,70.1z"/>
<path style="fill:#77482C;" d="M212.4,99.8c0,0-12.7-7.1-19.4-17.1s-26,14.7-26,14.7l17.2,8.2L212.4,99.8z"/>
<path style="fill:#D59567;" d="M145.2,16.3c-0.6,3.4-1.5,8.9-1.5,11.9c0,4.6-7.2,6.2-8.8,6.2c-1.5,0-6.7-0.5-7.7-3.1
	s-1.5-5.7-4.1-4.1c-2.6,1.5-2,4.6-4.6,7.2s-6.2,12.9-12.4,15.5c-4.5,1.9-12.5,4.7-17.4,6c0.1,1.6,0,3.2-0.2,4.8
	c-1,9.3,27.7,32,27.7,32l24-18.1l9.3-41.3C149.4,33.4,151,23.9,145.2,16.3z"/>
<path style="fill:#292018;" d="M118.4,34.4c2.6-2.6,2-5.7,4.6-7.2s3.1,1.5,4.1,4.1c1,2.6,6.2,3.1,7.7,3.1s8.8-1.5,8.8-6.2
	c0-3,0.9-8.5,1.5-11.9c-1.6-2.1-3.7-4.1-6.7-5.6C125,3.5,109.5-4.8,98.7,3.5s-15,15-13.9,26.3c0.9,9.4,3.5,18.1,3.8,26.2
	c4.9-1.3,12.9-4.1,17.4-6C112.2,47.3,115.8,37,118.4,34.4z"/>
<path style="fill:#1F1713;" d="M192.2,82.9c0,0-0.5-19.6-10.8-25.8s-9.8-5.2-13.9-6.7c-4.1-1.5-0.5-4.6-5.2-8.3
	c-4.6-3.6-11.9-7.7-16-4.1c-4.1,3.6-4.6,4.6-9.3,5.7c-4.6,1-6.7,2.6-6.2,6.7s0.5,6.7-4.6,7.7c-5.2,1-6.7,3.1-4.6,6.7
	s6.2,1.5,2.6,8.3c-3.6,6.7-3.8,12-3.5,13.5c0.4,1.5,22.6,17,22.6,17l29.1-2.4L192.2,82.9z"/>
<path style="fill:#77482C;" d="M170,99.7c-11.2-0.5-32-1.8-35.6-3.4c-4.6-2.1-23.7-20.6-27.4-23.2c-3.6-2.6-18.6-15-22.2-12.9
	C81.2,62.3,69.3,69,68.3,71c-1,2.1-2.6,6.7-2.6,10.8c0,4.1-2.1,4.6-1.5,7.7c0.5,3.1-0.5,7.2,2.6,7.7s10-17.4,10-17.4
	s15.3,19.5,26.1,28.2s15.5,9.8,22.7,11.9c6.1,1.7,30.2,12,41,15.1C164.7,127.4,162.2,111.3,170,99.7z"/>
<path style="fill:#A48583;" d="M248.8,122.5c-0.3-1-0.5-1.8-0.8-2.4c-0.9,1.7-2.8,5.3-4.1,7.9C245.4,125.2,247.7,121.7,248.8,122.5z
	"/>
<path style="fill:#B77472;" d="M202.5,114.4c1.5-4.1,1.5-8.8,3.6-8.8s4.1,2.6,4.1,5.7s-2.1,5.7-1.5,7.7c0.5,2.1,1,4.6,4.1,4.1
	s9.3-4.6,10.3-6.7s6.7-7.7,7.7-9.8c0.6-1.2,1.2-2.3,2-2.8c-4.7-3.5-10.1-6.4-16-7c0,0-19.1-2.6-22.7-1c-1.7,0.7-4.8,1.7-8,2.5
	c-3.6,0.9-7.3,1.6-9.5,1.6c-0.9,0-3.4-0.1-6.7-0.2c-7.9,11.6-5.3,27.7-3.4,35.4c2,0.6,3.5,0.9,4.4,0.9c2,0,4.5,0,7.5-0.1
	c5.4-0.2,12.4-0.6,20.4-2l0,0c0.1-4.3,0.1-8.9,1-10.8C201.5,120.1,201,118.6,202.5,114.4z"/>
<path style="fill:#A48583;" d="M245.4,116.3c-0.3-0.3-0.5-0.7-0.8-1c-1.4,2.8-6.9,11-6.9,11L245.4,116.3z"/>
<path style="fill:#A48583;" d="M236.1,112.4c-1.5,3.6-5.2,9.3-5.2,9.3s5.9-8.9,8-12.5c-0.7-0.7-1.5-1.4-2.2-2.1
	C237,108.6,236.8,110.6,236.1,112.4z"/>
<path style="fill:#D59567;" d="M248.8,122.5L248.8,122.5c0.3,1.2,0.6,2.5,0.9,4.1C249.9,124.9,249.8,123.2,248.8,122.5z"/>
<path style="fill:#D59567;" d="M243.9,127.9c-0.9,1.7-1.6,3-1.6,3S243,129.7,243.9,127.9z"/>
<path style="fill:#D59567;" d="M248.8,122.5c-1.1-0.8-3.4,2.7-4.9,5.5c-0.9,1.7-1.6,3-1.6,3s0.7-1.4,1.6-3c1.3-2.6,3.2-6.1,4.1-7.9
	c-0.2-0.4-0.3-0.7-0.5-1c-0.6-0.8-1.3-1.7-2.1-2.7l-7.7,10c0,0,5.5-8.2,6.9-11c-1.5-1.9-3.4-4-5.6-6.2c-2.1,3.7-8,12.5-8,12.5
	s3.6-5.7,5.2-9.3c0.7-1.7,0.9-3.7,0.6-5.4c-1.2-1.1-2.5-2.1-3.8-3.1c-0.8,0.5-1.4,1.6-2,2.8c-1,2.1-6.7,7.7-7.7,9.8
	c-1,2.1-7.2,6.2-10.3,6.7s-3.6-2.1-4.1-4.1c-0.5-2.1,1.5-4.6,1.5-7.7s-2.1-5.7-4.1-5.7c-2.1,0-2.1,4.6-3.6,8.8
	c-1.5,4.1-1,5.7-2.6,8.8c-0.9,1.9-0.9,6.5-1,10.8c-0.1,2.7-0.1,5.4-0.5,7.2l0,0c-1.1,4.6-16.5,17.6-19.2,19.7
	c-2.7,2.1-11.3,9.3-22.1,12.9c-10.8,3.6-21.2,7.7-21.2,7.7s-2.6-15-5.2-20.6c-24.8,2.1-39.2,17-39.2,17c3.1,6.2,25.8,35.6,32.5,41.3
	s14.5,3.1,18.6,1c3.5-1.7,22.1-12.3,29.6-16.8c1.4-0.8,2.4-1.5,2.9-1.8c3.1-2.1,28.4-29.4,32.5-34.1c4.1-4.6,6.7-7.7,15-9.3
	s12.4-9.8,15-11.9c2.6-2.1,10.3-15.5,11.1-16.8c0.4-0.6,0.7-1.8,0.9-3.1C249.4,125,249.1,123.6,248.8,122.5z"/>
<path style="fill:#D59567;" d="M328,106.2c0,0-8.3,8.3-9.3,12.9s0,9.3-1,12.4s-4.1,5.7-6.2,6.2s-2.1,7.5,0,8.4s2.6,9.2,1,10.2
	c-1.5,1-2.7,5.4,0,6.8c2.6,1.4,14,4.9,15.5,5.2s6.7,12.7,12.9,16.3c6.2,3.6,9.3,4.1,9.3,4.1l12.9-19.6l-26.6-58.6L328,106.2z"/>
<path style="fill:#B77472;" d="M276.4,277c-5.2-10.8-12.9-20.1-14.5-29.4c-1.5-9.3-2.1-54.2-4.6-63c-2.1-7.1-4.5-42.1-7.6-58.1
	c-0.2,1.3-0.6,2.5-0.9,3.1c-0.8,1.3-8.5,14.8-11.1,16.8c-2.6,2.1-6.7,10.3-15,11.9s-10.8,4.6-15,9.3c-4.1,4.6-29.4,32-32.5,34.1
	c-0.5,0.3-1.5,0.9-2.9,1.8c-2.5,4.6-5.6,9.4-7.4,12.2c-4.1,6.2-10.8,36.7,7.2,49.6c18.1,12.9,22.2,16,23.7,29.4
	c0.6,5.4,1,9.8,1.2,13c10.3-2.8,21.7-5.7,35.9-7.4c28-3.3,34.2,1.4,47.4,9C280.4,300.7,280.1,284.8,276.4,277z"/>
<path style="fill:#B28E34;" d="M441.6,215.6c-13.6-13.5-26.8-28.1-35.2-33c-11.4-6.7-49-12.4-49-12.4l-8.8,16.5c0,0-2.6,17-2.1,27.4
	s1.4,18-0.1,21.9s29.5,34.9,29.5,34.9s19.1,11.4,26.8,20.6c4.5,5.4,8.6,10.9,11.3,14.7c2.5,1.3,4.9,2.7,7.2,3.9
	c9.8,5.1,17.7,7.2,22.3-7.7C451.3,277.3,442.8,247.5,441.6,215.6z"/>
<path style="fill:#33231D;" d="M326.7,107.5c0,0-3.4-10.6,8.5-13.7s37.8-7.4,45.5,6.9s1.5,15.8,8.2,29.8
	c6.7,13.9,21.2,13.4,21.7,27.9s-16,24.3-13.9,32.5c2.1,8.3,11.9,26.8,0,19.1s-27.9-13.9-31-21.2c-3.1-7.2-17.5-17-16-23.7
	s-0.5-19.1-1-21.7C348.1,140.8,326.7,107.5,326.7,107.5z"/>
<path style="fill:#D59567;" d="M387.3,236.8c0,0-12.9,27.4-16,31.5c-3.1,4.1-5.7,17-16,18.1c-10.3,1-34.7,2.6-45.2,0
	s-33.2-10.3-35.8-11.9c-2.6-1.5-5.7-11.4-16-18.1c-10.3-6.7-11.4-13.4-5.7-11.9s9.8,4.6,11.4,6.2c0-0.5,0.5-6.7-5.7-9.3
	c-6.2-2.6-10.3-4.6-9.8-7.2c0.5-2.6,5.2-2.1,5.2-2.1s-1-2.6,0-4.1s6.2-0.5,7.7,0.5s2.1-3.1-0.5-4.6s-3.6-3.6-1.5-4.6
	s10.8,2.1,12.4,4.6s4.6,7.2,5.7,11.9s3.1,11.9,3.1,14.5s-0.1,3.9-0.1,3.9s22.3,2.8,32.7,1.3c10.3-1.5,29.4,2.1,29.4,2.1
	s3.1-22.7,5.7-24.8C348.6,232.6,366.2,237.3,387.3,236.8z"/>
</svg>
