<?xml version="1.0" encoding="utf-8"?>
<!-- Generator: Adobe Illustrator 26.5.0, SVG Export Plug-In . SVG Version: 6.00 Build 0)  -->
<svg version="1.1" id="Layer_1" xmlns="http://www.w3.org/2000/svg" xmlns:xlink="http://www.w3.org/1999/xlink" x="0px" y="0px"
	 viewBox="0 0 476.1 328.7" style="enable-background:new 0 0 476.1 328.7;" xml:space="preserve">
<path style="fill:#A2F4EC;" d="M414.1,103.6C371,88.2,363.6,51.5,332,16s-102.7-3.2-138.8,14.5C157.2,48.3,123,43.8,88,37.4
	S7.9,47.3,0.8,94.9c-7.8,52.4,43.4,85,59.1,129s8.6,66.4,38.7,91.7c1.6,1.4,3.3,2.6,5,3.7c5.1-9.4,9.6-18.1,10.3-22.9
	c-6.8-9.7-15.3-72.4-15.3-72.4s87,57.4,114.5,56c4,5.6,7.1,17.9,9.3,31.3c29-11.9,62-35.7,90.3-37.3c34.3-1.9,86.9-6.7,140.1-54.9
	S457.3,119.1,414.1,103.6z"/>
<g>
	<path style="fill:#8E321A;" d="M98.6,223.8c0,0,8.5,62.7,15.3,72.4c-0.7,4.8-5.2,13.6-10.3,22.9c29.8,19.6,70.3,3.6,101-2.4
		c5.7-1.1,11.7-3.1,17.8-5.6c-2.3-13.4-5.3-25.7-9.3-31.3C185.6,281.2,98.6,223.8,98.6,223.8z"/>
	<path style="fill:#381818;" d="M123,80.8c0,0,0,25.7,9.5,36.5s18.1,12.2,10.4,26.2c-7.7,13.9-2.3,23.6-5,31.6s-17.3,13.5-24-1.6
		c-6.7-15.1-6.5-18.2-14.9-25.9c-8.4-7.7-19-24.8-18-32c1-7.2-7.9-19.2-7.9-19.2L123,80.8z"/>
	<path style="fill:none;" d="M242.4,235.7l3.3-1.9l-3.3,1.5C242.4,235.6,242.4,235.7,242.4,235.7z"/>
	<polygon style="fill:#F6B5A0;" points="245.7,233.8 245.7,233.8 245.7,233.8 	"/>
	<path style="fill:#8E321A;" d="M137.9,204.2c0,0,22.5,42.8,28.4,56.1c5.9,13.3,13.5,7,13.5,7l48.2-21.2c0-0.3,0-0.9,0-1.8
		c0-1.8,4.1-12.2,4.5-22.1c0.5-9.9-4.5-21.2-8.1-28.8c-3.6-7.7-15.9-22-15.9-22s-1.7-14.5-5.3-25.8c-3.6-11.3-15.8-14.9-19.4-16.2
		c-2-0.7-6-0.9-10.2-1.8c-0.5,7.2-1.4,16.4-2.4,20.2c-1.8,6.8-14,13.1-28.4,9c-9.5-2.7-21.7-14.9-28.9-22.9
		c-6.4,2.8-31.8,7.6-36.9,21.1c-5.4,14.4,1.8,31.1,1.8,31.1s7.9,20.4,19.8,43.3C136.2,222.3,137.9,204.2,137.9,204.2z"/>
	<path style="fill:#381818;" d="M172.6,100.6c0,0-0.5,12.2,7.7,24.3c8.1,12.2,9.5,9.9,7.7,19.8c-1.8,9.9-0.5,13.1-5.4,18
		s-10.8,8.6-12.6-1.4c-1.8-9.9,1.4-17.2,0-25.1s-14.4-12.8-12.6-16.4C159.1,116.4,172.6,100.6,172.6,100.6z"/>
	<path style="fill:#F6B5A0;" d="M164,127.2c-2.9-2.6-4.2-8.5-4.9-13.8c-5.2-0.5-10.8-0.1-16.2,0.7l2.8-7.4l-15.9,1.5
		c8.5,5.2,22.8,14.2,27.2,17.9c-14.2,7.3-28.8,0.3-35-3.5c-0.2,1.8-0.4,3.9-0.4,5.6c0,3.6-2.7,6.3-6.8,9c-0.2,0.2-0.6,0.3-1,0.5
		c7.3,8.1,19.4,20.3,28.9,22.9c14.4,4.1,26.6-2.3,28.4-9c1-3.9,1.9-13.1,2.4-20.2C170.1,130.6,166.5,129.4,164,127.2z"/>
	<path style="fill:#E09F8D;" d="M157.1,126c-4.4-3.7-18.7-12.7-27.2-17.9l-6,0.6l-1.4,10.1c-0.1,0.3-0.2,1.2-0.3,2.3l0,0
		c-0.1,0.4-0.1,0.9-0.2,1.4C128.3,126.3,142.9,133.3,157.1,126z"/>
	<path style="fill:#F6B5A0;" d="M98.6,89.5l8.4,4.6c-0.6-2.5-0.9-4.6-0.7-6.3C109,107,136,122.2,136,122.2
		c14.6,8.4,25.3,4.8,32.4-5.1c7.1-9.9,8.7-17.8,11-25.1s5.8-33.2,5.8-33.2l-8-19.9l-16.8-8.5l-20.2,2.6l-32.4,10.2L95.6,56.7
		l3.3,15.6L98.6,89.5z"/>
	<path style="fill:#381818;" d="M190.2,37.7c-7.9-6.7-11.6-10.1-17.8-8.7c-3.6-3.4-18.4-21.1-33.5-18.6s-12.2,4.8-23,13.5
		s-26.1,4.3-32.1,15c-6,10.7-7.8,27-14.2,32.6c-6.4,5.6-18.2,20.9-9.7,32.7c0.7,1,1.5,1.9,2.1,2.8c2.1,3.9,4.2,8.8,3.7,12.5
		c-1,7.2,9.5,24.3,18,32c8.4,7.7,8.2,10.8,14.9,25.9c6.7,15.1,21.2,9.6,24,1.6c2.7-8-2.7-17.7,5-31.6c7.7-13.9-0.9-15.3-10.4-26.2
		c-4.9-5.6-7.3-15.3-8.4-23.2c0.1-0.7,0.2-1.3,0.2-2c0.7-12.6,10.5-34.1,17.6-35.9c7.1-1.9,21-4.3,24.8-9.9
		c3.8-5.6,13.1-15.5,13.1-15.5s20.9,13.5,18.4,39.4C188.9,68,198.1,44.4,190.2,37.7z"/>
</g>
<g>
	<path style="fill:#33231D;" d="M329.8,19.9c0,0,27.5,7.2,31.1,19.4c3.6,12.2,1.4,11.3,6.3,21.6s3.6,23.1,0,32.1
		c-3.6,8.9-9.5,7.1-6.3,22s7.2,18.9,3.6,25.7c-3.6,6.8-10.2,0-17.3,0c-7.1,0,4.2-3.2-21.9,4.5c-26.1,7.7-45.9,11.3-57.4,8.8
		c-11.5-2.5-46.7,3.4-50.7,3.4c-4.1,0-9.9-18.9-8.6-23.4c1.4-4.5,10.8-6.8,14.4-13.5c3.6-6.8,2.7-11.7,10.8-21.6
		c8.1-9.9,19.4-7.7,22.1-19.8c2.7-12.2-2.3-28.8,6.3-36.9c8.6-8.1,8.1-9,19.4-14s13.1-9.9,22.5-11.7
		C313.6,14.5,329.8,19.9,329.8,19.9z"/>
	<path style="fill:#6DA549;" d="M251,227.6l100,7.7l27.5-61.7c0,0-8.6-30.2-22.5-41.9s-36.5-11.3-36.5-11.3s-18.6,2.6-40.1,6.4
		l-5.6-12.6c0,0-28.6,9.8-38.9,12.9c-7.1,2.2-14.5,10.9-18.4,16.2c-0.2,0.2-0.3,0.3-0.5,0.5c-0.8,1-1.6,2.2-2.5,3.6c0,0,0,0,0,0l0,0
		c-2.7,4.4-5.8,10.5-8.7,16.7c7.5,0.5,27.6,4.5,33.2,31.5l5.5-8.6L251,227.6z"/>
	<path style="fill:#C68B7D;" d="M311.2,121.8l-0.7-8.1l-11.4-5c-6.4-2.7-12-5-12-5s-0.9,2.7-5.3,6c0,0.1-0.1,0.3-0.1,0.4
		C295.1,128.1,311.2,121.8,311.2,121.8z"/>
	<path style="fill:#E09D89;" d="M356.8,68.6c0.9-4.1-0.5-8.1-2.7-11.3c-2.3-3.2-7.7,1.8-11.3,2.7c-3.6,0.9-7.7-5.4-13.5-5.4
		s-5,6.8-5,9.9c0,3.2-8.6,2.3-14.9,1.8c-6.3-0.5-9,4.5-9,4.5c0-8.1-5-6.8-9.5-1.4c-4.5,5.4-2.7,13.1-0.5,18c2.3,5-2.3,14-5,18.5
		c7.7,11.3,14.9,14,14.9,14s4.3,1.8,10.6,1.8l0,0c0,0-16,6.3-29.6-11.7c0-0.1,0.1-0.3,0.1-0.4c-2.6,2-6.5,4.2-12.3,6.2
		c0,0-0.5,24.3,4.5,33.3c5,9,27,43.7,27,43.7s6.3,18.6,30.8,20.3s24.1-26.2,24.1-26.2s-3.2-12.6-8.6-19.8
		c-5.4-7.2-7.2-17.1-9.5-21.2c-1.7-3.1-11.9-18.1-17.6-25.6c4.5-1.2,9.3-3.6,14-7.8C350.5,98.3,355.9,72.7,356.8,68.6z"/>
	<path style="fill:#FBC192;" d="M238.4,286.7c0,0-21.2,0-31.1-9.5c-9.9-9.5-27.5-23-23-37.8c4.5-14.9,41.4,28.8,41.4,28.8
		L238.4,286.7z"/>
	<path style="fill:#A86556;" d="M280.6,179.9c0,0,2.4-15.2,4.4-15.7c2-0.5,2.9-1,5.1-1.4c2.3-0.5,8.3-0.8,11.1,1.4
		c2.8,2.2,2.8,0.4,4.6,2.6s1.8,8.1,0,9.7c-1.8,1.6-4.5,1.6-6.6,3.4s-3,4.3-3,4.3L280.6,179.9z"/>
	<path style="fill:#A86556;" d="M371.7,172.7c0,0-9.5,0-13.1,5c-3.6,5-4.1,5-6.3,9.9c-1.8,3.6-5.4,0.5-7.7,2.3
		c-2.3,1.8-8.1,4.5-9.5,9.5c-1.4,5-2.3,10.4-3.2,12.6c-0.9,2.3,17.1,14.9,17.1,14.9l17.8,8.4l7.4,1l10.8-18.5l-5-32.9l-4.5-12.2
		H371.7z"/>
	<path style="fill:#FBC192;" d="M371.3,233.5c-8.6-11.7-20.7-16.7-29.7-18.9s-44.3-1.5-45.8-1.2c3.3-3.5,1.6-29.9,1.6-29.9
		s-12.2-3.2-17.6-3.6c-13.3,20.4-13.9,35.5-12.2,45.5c2.7,5.5,9.2,17.9,14.1,20.3c6.3,3.2,33.2,8.9,40,9.6c6.8,0.7-3.9,4.5-3.9,4.5
		s-33.9-4.3-43.8-12.4c-7.1-5.8-8-16.1-7.9-21.4c-5.9-0.1-16.4-9-25.5-16.4c-9.9-8.1-20.7-3.6-20.7-3.6l-16.7,17.1l5.2,16.2
		l34.9,42.4c0,0,38.7,9.5,64.4,7.7s54.1-22.1,54.1-22.1l5.4-20.3C367.2,247,379.8,245.2,371.3,233.5z"/>
	<path style="fill:#EAAE81;" d="M273.9,247.5c9.9,8.1,43.8,12.4,43.8,12.4s10.7-3.8,3.9-4.5c-6.8-0.7-33.7-6.5-40-9.6
		c-4.9-2.4-11.3-14.8-14.1-20.3c0,0.2,0.1,0.3,0.1,0.5c-0.5,0.2-1,0.2-1.6,0.2C266,231.3,266.8,241.6,273.9,247.5z"/>
	<path style="fill:#E09D89;" d="M399.3,235.3c0,0-15.4-0.9-23.1,0c-7.7,0.9-18.8,8.1-29.7,15.8c-10.8,7.7-12.6,6.8-14.4,5.9
		c-1.8-0.9-11.3-2.3-14.4-1.4c-3.2,0.9-9.9,0-12.2,0.9c-2.3,0.9,1.8,2.8,1.8,2.8s-0.9,1.7-10.8-1.5c-9.9-3.2-14-6.3-14.4-3.2
		c-0.5,3.2,17.6,11.7,17.6,11.7s-0.5,0.9-4.5,0.5c-4.1-0.5-18.5-9-19.8-6.8c-2.3,3.6,9.5,9.5,16.7,12.6c-6.8-0.5-14.9-4.5-16.7-5
		c-1.8-0.5-1.8,2.7,0.5,4.5s3.2,2.7,2.7,3.6c-0.5,0.9,2.3,5,14,6.8c2,0.3,4.1,0.5,6.4,0.6c-1.3,0.8-2.8,1.9-4.2,2.5
		c-3.2,1.4-19.8-0.5-25.7-0.9c-5.9-0.5-9-2.3-9-2.3s-40.5-44.2-43.3-47.3c-2.7-3.2,0-6.3,0-6.3l13.4-21.1l7.8-12.2
		c-5.6-27-25.8-31-33.2-31.5c-3.9,8.3-7.5,16.7-9.4,21.2c-0.9,2.2-1.5,3.5-1.5,3.5s-13.5,31.5-14,42.3c-0.5,10.8,9,20.7,15.3,27.5
		c6.3,6.8,43.3,31.1,50,35.6c6.8,4.5,20.3,10.8,35.6,11.7c15.3,0.9,23.9-4.5,28.4-9.5c4.5-5,12.2-14.4,12.2-14.4l-0.8-0.3
		c5.8-0.9,11.5-2.2,16.6-3.8c14-4.5,46.9-20.7,55.1-27.4C400.4,244,399.3,235.3,399.3,235.3z M301.9,283.5c0-0.1,0-0.1,0-0.2
		c2.5,0,5.1-0.1,7.8-0.2l-8.2,4.5C301.4,287.6,302.3,286.7,301.9,283.5z M310.8,289.4c-2.8,1.8-3,0-3,0l5.9-5.9l0.3-0.8
		c1.3-0.1,2.6-0.3,3.9-0.4C316.2,284.1,312.9,288,310.8,289.4z"/>
	<path style="fill:#33231D;" d="M370.4,173.1c0,0,0.4-2.2,3.1-1.8s1.9,1.2,4.5,0.8c2.7-0.4,1.9-2.3,5.9,0c4,2.3,2.9,2.4,7.1,2.6
		c4.1,0.2,5.9-0.3,7.3,2c1.4,2.3,1.4,1.4,4.1,2.3c2.7,0.9,3.2,0.9,5.4,4.1c2.3,3.2,1.4,0.5,4.1,4.1s0,7.2,1.8,8.1
		c1.8,0.9,3.2,0.9,3.2,3.6c0,2.7-1.8,3.8,0,6.4c1.8,2.6,2.7,2.6,1.4,4.9c-1.4,2.3-3.6,1.4-2.3,4.5c1.4,3.2,0.9,5-0.9,6.8
		c-1.8,1.8-1.8-0.5-2.7,3.2c-0.9,3.6-1.4,5.4-3.2,5.9s-1.8-1.4-4.5,1.8c-2.7,3.2-1.8,5-5.4,5c-3.6,0-2.7-0.5-7.2-0.5
		s-3.8,0.5-8.9,0.5c-5.1,0-10.8,2.3-10,0c0.8-2.3,3.5-6.3,1.7-8.1c-1.8-1.8-3.2-0.9-3.2-3.2s0.9-2.7,1.8-4.5c0.9-1.8,1.8-2.3,0-4.1
		c-1.8-1.8-3.6-5-1.8-6.3c1.8-1.4,5.4-2.4,4.8-6.4c-0.7-4-4.8-4-6.6-3.1s-4.2,3.6-4.4,1.1c-0.1-2.5,1.2-4.3,3-5.2
		c1.8-0.9,4.1-2.3,2.7-4.1c-1.4-1.8-5-0.5-3.6-3.2c1.4-2.7,4.5-1.4,4.1-3.6c-0.5-2.3-1.6-1.8-1.3-3.4c0.4-1.6,3.1-0.7,4.4-2.9
		c1.4-2.3,1.4-0.9,0.5-2.7c-0.9-1.8,1.1-2.1-0.8-2.9S370.1,174.4,370.4,173.1z"/>
</g>
<path style="fill:#F6B5A0;" d="M343.4,214.3c-0.3-3.9-1.9-5.7-1-7.7c1.4-1.7,1.4-8.7,0-10.1c-1.4-1.4-3.2-2.3-4.1-2.3
	c0.5-0.9,2.3-5.4,2.3-7.2c0-1.8-4.5-2.7-8.1,0.9c-3.6,3.6-8.1,4.5-11.7,5.9c-3.6,1.4-2.3-0.5-3.2-0.5c2.7-1.4,5-5.4,5.4-7.2
	c0.5-1.8-0.9-4.1-3.2-2.7s-5,3.2-8.1,3.6c-3.2,0.5-5,0.5-6.3,1.8c-1.4,1.4-6.3,3.6-9,5c-2.7,1.4-5.4,2.3-8.1,5.9s-9,12.2-10.8,15.8
	c-1.8,3.6-2.7,4.1-2.7,4.1l-9.9,5.9l-33.6,19.3l0,0l0,0l-3.3,1.9c0,0,0-0.1,0-0.4l-48.2,21.2c0,0-7.5,6.3-13.5-7
	c-5.9-13.3-28.4-56.1-28.4-56.1s-1.7,18.1-39.3,25.2c1.5,2.8,3,5.7,4.6,8.6c14.4,26.1,49.1,68,51.8,70.7s6.3,6.3,12.2,6.8
	s21.6-7.7,21.6-7.7l41.9-25.2c0,0,55.4-38.3,59.5-41.9c4.1-3.6,13.1-2.3,18-3.2s14-2.3,18-4.1c4.1-1.8,10.8-4.5,11.7-6.8
	c0.9-2.3,0.5-5,1.4-6.8C340.2,218.2,343.8,218.2,343.4,214.3z"/>
</svg>
