<?xml version="1.0" encoding="utf-8"?>
<!-- Generator: Adobe Illustrator 26.5.0, SVG Export Plug-In . SVG Version: 6.00 Build 0)  -->
<svg version="1.1" id="Layer_1" xmlns="http://www.w3.org/2000/svg" xmlns:xlink="http://www.w3.org/1999/xlink" x="0px" y="0px"
	 viewBox="0 0 309.8 345" enable-background="new 0 0 309.8 345" xml:space="preserve">
<g>
	<path fill="#D6CEE1" d="M291.2,143.8C257.9,99.9,270.9,57.3,245.4,30C220,2.7,221.2-2.2,155.7,20.7s-83.5,31-106.3,77.6
		C41.2,115,33.5,137,26.9,159.7c2.6-5.2,7.7-15.4,10.5-16.8c3.4-1.7,25.6-11.8,27.5-14.7c1.9-2.9,8.4-16.4,17.2-21.8
		c8.3-5,8.9-6.9,16.3-8.6c-2.6,6.8-5.1,17.3-0.6,21.5c5.7,5.3,8.8,6.9,13.2,7.8c4.4,1,13.6,1.9,16.4-2.1c2.9-4,12.2-2.5,16.2-1.9
		c1.5,0.2,2.7,1.4,3.8,2.9c0.4-0.6,0.8-1.2,1.2-1.7c0.2,0.1,0.4,0.3,0.6,0.4c1.7,1,3,1.7,3.5,1.7c4.2,0.6,39.6,6.8,51-5.2
		c0.4,0.1,0.9,0.2,1.4,0.3c1.8,0.4,3.2,0.7,4.1,0.9c0.3,0.1,0.6,0.2,1,0.3c8.2,2.2,21.3,7.9,38.2,28.6c0,0,0.4,1.5,1.1,4
		c2.4,9.1,8.5,30.9,12.1,36.9c4.6,7.6,11.3,22.5,6.3,38.8s-10.7,32.5-12.2,37c-1.5,4.6-2.5,12.2-5,15.3s-9.9,10.1-11.8,13.6
		c-1.9,3.4-7.1,14.9-9.5,22c-0.4,1.1-1.4,3-3,5.6c5.9-0.5,12.7-0.8,20.7-1.1C315,321.3,324.5,187.6,291.2,143.8z"/>
	<path fill="#FBB675" d="M209.3,122.4c0.3,0.1,0.6,0.2,1,0.3l0,0C210.3,122.7,209.9,122.6,209.3,122.4z"/>
	<path fill="none" d="M210.3,122.7c0,0-0.4-0.1-1-0.2C209.6,122.5,209.9,122.6,210.3,122.7L210.3,122.7z"/>
	<path fill="#010101" d="M148.8,124c0,0,0.3-0.4,0.6-1.2c0,0-0.3,0.6-0.8,1.5c0.2,0.1,0.4,0.3,0.6,0.4L148.8,124z"/>
	<path fill="#FBB675" d="M203.7,121.2c0.4,0.1,0.9,0.2,1.4,0.3C204.7,121.4,204.2,121.3,203.7,121.2z"/>
	<path fill="#9D2881" d="M155.7,96.3l-1-0.6c0,0-13.4-4-16.2-6.9c-2.9-2.9-0.6,3.6,2.1,5.9c2.7,2.3,6.9,4.6,11.3,2.9
		C154.2,96.9,155.7,96.3,155.7,96.3z"/>
	<path fill="#E0E3E2" d="M191.8,95c2,0.6,3.5-2.7,4.1-4.5l-5.6-0.4C190,91.5,189.7,94.4,191.8,95z"/>
	<path fill="#FBB675" d="M190,90.1h0.3l5.6,0.4h0.2L207,78.1c0,0,1-6.9-3.2-5.2c-4.2,1.7-5.2,4-5.7,1.1s0.2-5.9-1.3-8.2
		c-1.5-2.3-4.2-11.1-5.3-14.5S186,39.7,181.8,38s-2.5-3.8-7.6-4s-6.4-1.1-6.4-1.1s-3.6-3.1-6.9-2.9c-3.2,0.2-5.2,0-8.4,5s-9,13-9,13
		s-1.3,2.3-1.5,8.4s-1.3,23.1-6.9,28.8c-1.3,1.7-2.7,4.6-1.7,7.3c1,2.7,0.6,11.5,5,14.9s10.9,4.2,12.1,8.1c0.8,2.7-0.3,5.7-1,7.3
		c-0.3,0.7-0.6,1.2-0.6,1.2l0.4,0.6c1.7,1,3,1.7,3.5,1.7c4.2,0.6,39.6,6.8,51-5.2c-1.8-0.4-3.8-0.8-5.9-1.3
		c-6.9-1.5-15.9-7.1-15.9-7.1s-3.2-3.4,1.3-13C187.3,92.8,190,90.1,190,90.1z M151.9,97.6c-4.4,1.7-8.6-0.6-11.3-2.9s-5-8.8-2.1-5.9
		s16.2,6.9,16.2,6.9l1,0.6C155.7,96.3,154.2,96.9,151.9,97.6z"/>
	<path fill="#81261D" d="M205.2,121.5c1.8,0.4,3.2,0.7,4.1,0.9C207.7,122,206.3,121.8,205.2,121.5z"/>
	<path fill="#D6CEE1" d="M51.1,295.4c-1.5-9.5-0.2-21.6,3.6-26.2s17-39.5,17-39.5S49.4,250,29,242.7c-9.2-3.3-15.6-7-19.8-10.1
		c-2.3,12-4,22.1-4.7,29c-3.3,29.4,9.8,40,9.8,40s26.5,21.9,62.2,34.6C58.4,322.2,52.6,322.6,51.1,295.4z"/>
	<path fill="#81261D" d="M25.5,162.3c-1.5,2.7-7.3,2.5-11.1,4.2s-5.9,7.1-8,10.9c-2.1,3.8-4.8,2.9-6.1,18.9s1.9,29.8,1.9,29.8
		s1.9,2.8,7,6.6c4-20.8,10.2-47.3,17.7-73C26.3,160.9,25.8,161.8,25.5,162.3z"/>
	<path fill="#81261D" d="M239,296.8c1.9-3.4,9.4-10.5,11.8-13.6s3.4-10.7,5-15.3c1.5-4.6,7.3-20.8,12.2-37s-1.7-31.1-6.3-38.8
		c-3.6-6-9.7-27.8-12.1-36.9c-0.7-2.5-1.1-4-1.1-4c-17-20.7-30-26.4-38.2-28.6c-0.3-0.1-0.7-0.2-1-0.3c-0.9-0.2-2.3-0.5-4.1-0.9
		c-0.5-0.1-1-0.2-1.4-0.3c-11.4,12-46.8,5.7-51,5.2c-0.6-0.1-1.8-0.7-3.5-1.7c-0.2-0.1-0.4-0.2-0.6-0.4c-0.3,0.5-0.7,1.1-1.2,1.7
		c-1-1.5-2.3-2.7-3.8-2.9c-4-0.6-13.4-2.1-16.2,1.9c-2.9,4-12,3.1-16.4,2.1s-7.4-2.5-13.2-7.8c-4.5-4.2-2-14.7,0.6-21.5
		c-7.4,1.8-8.1,3.6-16.3,8.6c-8.8,5.3-15.3,18.9-17.2,21.8c-1.9,2.9-24.1,13-27.5,14.7c-2.8,1.4-7.9,11.6-10.5,16.8
		c-7.5,25.7-13.7,52.2-17.7,73c4.2,3.1,10.5,6.8,19.8,10.1c20.4,7.3,42.8-13,42.8-13s-13.2,34.9-17,39.5c-3.8,4.6-5.2,16.6-3.6,26.2
		c1.5,27.2,7.3,26.8,25.3,40.8c18.6,6.6,39.6,10.7,60.7,7.9c54.4-7.2,45.5-16.3,89.2-19.7c1.6-2.5,2.7-4.5,3-5.6
		C231.9,311.7,237,300.3,239,296.8z"/>
	<path fill="#010101" d="M246.1,102.5c-5.5-10.3-6.7-26.5-6.7-26.5s-5-26.2-10.3-41.8S214.2,8.6,209.6,8.4
		c-4.6-0.2-10.2-4.5-10.2-4.5S184.7-7,165.6,7.7s-22,16.6-25.8,24.3c-3.8,7.6-8.6,20.4-13.2,25.6c-4.6,5.2-5.9,9.2-9,11.8
		c-3.1,2.7,0.2,10.3-2.5,15.7c-2.7,5.3-12.2,2.9-14.9,8.2c-0.6,1.1-1.2,2.6-1.9,4.4c-2.6,6.8-5.1,17.3-0.6,21.5
		c5.7,5.3,8.8,6.9,13.2,7.8c4.4,1,13.6,1.9,16.4-2.1c2.9-4,12.2-2.5,16.2-1.9c1.5,0.2,2.7,1.4,3.8,2.9c0.4-0.6,0.8-1.2,1.2-1.7
		c0.5-0.8,0.8-1.5,0.8-1.5c0.7-1.6,1.7-4.6,1-7.3c-1.1-3.9-7.7-4.7-12.1-8.1c-4.4-3.4-4-12.2-5-14.9c-1-2.7,0.4-5.5,1.7-7.3
		c5.5-5.7,6.7-22.7,6.9-28.8s1.5-8.4,1.5-8.4s5.7-8,9-13c3.2-5,5.2-4.8,8.4-5s6.9,2.9,6.9,2.9s1.2,0.9,6.4,1.1s3.4,2.3,7.6,4
		c4.2,1.7,8.4,9.9,9.5,13.4s3.8,12.2,5.3,14.5c1.5,2.3,0.8,5.3,1.3,8.2s1.5,0.6,5.7-1.1s3.2,5.2,3.2,5.2l-10.9,12.4h-0.2
		c-0.6,1.8-2.1,5.1-4.1,4.5s-1.7-3.5-1.5-4.8h-0.3c0,0-2.7,2.7-6.7,9.7c-4.6,9.5-1.3,13-1.3,13s9,5.5,15.9,7.1
		c2.1,0.5,4.2,0.9,5.9,1.3c0.5,0.1,1,0.2,1.4,0.3c1.2,0.2,2.5,0.5,4.1,0.9c0.7,0.1,1,0.2,1,0.2l0,0c8.2,2.2,21.3,7.9,38.2,28.6
		c0,0,0.4,1.5,1.1,4c0.9-2.7,1.5-6.3,1.7-11.1C252,122.8,251.7,112.8,246.1,102.5z"/>
	<polygon fill="#F1ECEC" points="62.9,138.1 150.7,152.5 124.2,288.8 30.6,266.7 	"/>
	<path fill="#010101" d="M103.4,131.1l10.9,2.1l1.3,4.4l-2.5,2.1l-0.8,5.3l13,11.5c0,0-36.1-4.6-43.9-8.2c1.9-2.9,17.3-5.3,17.3-5.3
		L103.4,131.1z"/>
	<path fill="#4CC7AA" d="M61.7,167.5l-0.8,13l12.6,1l1-12.8L61.7,167.5z M71.7,179.5l-9-0.8l0.6-9.2l8.8,0.8L71.7,179.5z"/>
	<path fill="#4CC7AA" d="M54.9,205.3l10.7,1.3l3.2-16.8l-10.1-1.5L54.9,205.3z M67.2,191.5l-3.1,13l-6.9-0.8l2.9-13.9L67.2,191.5z"
		/>
	<path fill="#4CC7AA" d="M46.5,245.9l11.3,1.1l7.4-14.5l-13.9-4L46.5,245.9z M62.2,233.9l-5.5,10.9l-7.3-1.1l3.4-12.6L62.2,233.9z"
		/>
	<path fill="#4CC7AA" d="M67.4,177c0.8-1.1,2-1.9,3.1-2.7c3.5-2.5,7-4.9,10.5-7.4c1.4-1,2.9-2,4.5-1.8c0.3,0.7-0.2,1.5-0.7,2
		c-1.8,1.8-3.6,3.6-5.6,5.1c-1.4,1-2.9,2-4.4,2.9c-2.6,1.6-5.3,3.2-7.9,4.8c-0.2,0.1-0.5,0.3-0.7,0.2c-0.2,0-0.4-0.2-0.6-0.4
		c-1.5-1.3-3.1-2.7-4.6-4c-0.9-0.8-1.9-1.7-2-2.9c-0.1-0.9,0.7-2.1,1.6-2.1c0.9,0,1.5,1.3,2,1.9C62.9,172.9,67.2,177.3,67.4,177z"/>
	<path fill="#FBB675" d="M26.6,184.5c0,0-5,15.7,4,9.8s13.6-10.6,14.7-16.7c1.1-6.1,4.5-20,11.9-21.2s10.3-6.5,9.9-8.9
		s1.9-7.2,0.6-8.1c1.3-0.9,6.8-8.9,6.8-8.9s2.8-4.9-1.2-8.4s-8,4.2-8,4.2s-1.1,0.7-2.5-2.7s-3.2-6.6-8.2-6.3S38,119.8,38,119.8
		s-4.4,2.1-2.3,9.5c-0.2,0.4-3.6,3.2-1.9,9.2s3.2,9.9-1,16.7s-3.4,13.9-4,17.9C28.2,177.2,26.6,184.5,26.6,184.5z"/>
	<path fill="#D39C6A" d="M42.1,129.9c0,0,17.2,0.4,19.3,0.8C60.2,131.1,45.9,131.1,42.1,129.9z"/>
	<path fill="#D39C6A" d="M42.1,138.1c0,0,17.2,0.4,19.3,0.8C60.2,139.3,45.9,139.3,42.1,138.1z"/>
	<path fill="#D39C6A" d="M44.5,150.9c0,0,15.1-5.3,18.9-5.5C62.7,146,45.5,151.1,44.5,150.9z"/>
	<path fill="#FBB675" d="M177.1,258.3c0,0,7.4,15.7-10.1,22.9c-6.5-2.5-9.7-4.4-12.8-2.9s-16.4,7.6-28.1,0.7s-27.7-9.3-25.4-11.4
		s17.4-0.8,17.4-0.8s-13.2-3.4-16-6.9c-2.7-3.4,6.7-2.5,9.1-1.7c-0.4-0.4-18-7.4-17.1-12.2c1.1-4.8,26.5,6.9,26.5,6.9
		s-20.2-5.9-19.9-9.9c0.4-4,13.7-0.6,28.5,0s19.6,4,22.3,5.2C154.2,249.3,177.1,258.3,177.1,258.3z"/>
	<path fill="#681E1A" d="M177.1,258.3c0,0,39.2,11.8,43.7,5c4.6-6.9,15.7-48.7,13.8-53.9c-1,4.6-10.7,52.7-15.7,53.7
		C213.9,264,177.1,258.3,177.1,258.3z"/>
	<path fill="#0B02A7" d="M47.4,117.7c-2.3-3.5-4.7-7.1-7-10.6c-0.5-0.8-1.1-1.6-1.8-2.3c-0.6-0.6-1.3-1-1.9-1.5
		c-1.4-1.3-2.3-3-3.4-4.6c-1.9-2.8-4.3-5.2-7.1-7c-0.5-0.3-1.1-0.7-1.7-0.7s-1.3,0.2-1.6,0.7c-0.6,1.1,0.6,2.2,1.5,3.1
		c2.2,2.3,2.5,5.9,4.3,8.6c0.7,1.1,1.6,2,2.5,2.9c4.1,4.2,8.2,8.5,12.4,12.7c0.7,0.7,1.5,1.5,2.6,1.6c0.6,0,1.8-0.3,2.1-0.8
		C48.6,119,47.9,118.4,47.4,117.7z"/>
</g>
</svg>
