<?xml version="1.0" encoding="utf-8"?>
<!-- Generator: Adobe Illustrator 26.5.0, SVG Export Plug-In . SVG Version: 6.00 Build 0)  -->
<svg version="1.1" id="Layer_1" xmlns="http://www.w3.org/2000/svg" xmlns:xlink="http://www.w3.org/1999/xlink" x="0px" y="0px"
	 viewBox="0 0 268.2 289.7" enable-background="new 0 0 268.2 289.7" xml:space="preserve">
<g>
	<path fill="#C3D3E9" d="M206.1,0.7c0,0,47,9.5,55.9,98.5c8.9,89,4.4,100.4-24,135.2s-42.4,20.8-70.5,40.6
		c-28.1,19.8-119.5,17.3-132.7,5.8C21.9,269.2,4.9,248.7,18,220.4s6.2-29.9,5.4-56.6S21,123.6,45.9,99.2s55.9-36.7,73.4-53
		S152.5-5.4,206.1,0.7z"/>
	<g>
		<path fill="#C75552" d="M92.5,246.9l-3.6,9.4l-6.1,11.9c0,0-3.6,5.4-1.1,7.9c2.5,2.5,11.5,2.2,11.5,2.2l23-0.4
			c0,0,3.6-0.7,3.2-5.4c-0.4-4.7-2.9-7.6-6.5-8.3c-3.6-0.7-6.5-7.6-6.1-10.8c0.4-3.2,0.4-1.1,0.4-3.6c0-2.5,0.4-6.1,0.4-6.1
			L92.5,246.9z"/>
		<path fill="#010102" d="M111.1,214.7c-1.8-5-6.8-5.4-6.8-5.4s-10.4-1.8-22.3-0.4s-15.1-8.3-15.1-8.3l-32.9-1.7l-0.8-1
			c0,0-10.1,2.9-7.2,21.6s26.3,30.6,26.3,30.6s1.8,1.4-1.8,0.4c-3.6-1.1-13.1-4.9-24.3-4.9c-0.4,1.4-2.5,14-2.5,14s16.6,4,23.8,4.3
			s15.8,2.2,18,1.8c2.2-0.4,5.8-0.7,4-8.3c-1.7-7-4.6-14.7-10.5-20c3.3,0,7.9-0.1,11-0.9c5.3-1.4,8.9-2.1,13.2-1.7
			c4.3,0.4,8.5,0.2,11.6-2.9c0.9-1.3,3.1-2.8,2.4-0.7c-0.7,2.2-4,6.8-5,17.3c0.7,0.4,15.5-2.2,15.5-2.2S113.6,223,111.1,214.7z"/>
		<path fill="#C75552" d="M113.8,149.4c-1.4-2.2-8.1,2.7-8.1,2.7s-3.2,15.1-1.8,26.6c-0.5-1.5-3.4-8.2-7.5-15.2l8.7-12l-7.6-3.2
			l-5.6,8.4c-4-5.5-8.5-10-12.9-10.7C67.5,144.2,58,157,58,157s-11.5,21.6-27,42.1c5,2.2,35.6,13.7,46.8,9.7s5.4-5.8,7.2-11.2
			c1.8-5.4,6.1-15.5,2.9-18c-3.2-2.5-4.3-8.3-1.8-4.3s11.5,16.2,11.5,16.2s2,4.5,5.5,4.6c3.5,0.1,4.9-7.1,4.9-7.1
			S114.5,156.6,113.8,149.4z"/>
		<path d="M98.7,128.8l5,3.7l1.1-2.5l2.9,0.4l0.7,2.2l14.8-5c0,0,5,4.7,1.8,13.3c-3.2,1.1-17.3,5.8-17.3,5.8l-5,6.1l-7.9,1.1
			c0,0-2.2-8.6-0.7-11.9C95.4,138.6,98.7,128.8,98.7,128.8z"/>
		<path fill="#EFCAC0" d="M97.6,127.1c0,0,2.5,1.1,1.4,2.5s-1.1,1.1-0.7,3.6c0.4,2.5,0.4,5.4-1.1,6.8c-1.4,1.4-1.1,1.8-1.8,3.2
			c-0.7,1.4-6.9,3-14.8,0.4s4.7-11.9,4.7-11.9l12.2-4.3V127.1z"/>
		<path d="M98.7,126c0,0-2.5-11.2-14.8-11.5c-12.2-0.4-13.7,7.6-13.7,7.6s-2.2,11.9-10.1,19.1c-7.9,7.2-11.9,5.8-15.1,11.5
			c-3.2,5.8,4.7,6.1,4.7,6.1s4.3,0,7.6,2.2s14.8-4.3,14.8-4.3s3.8-2.7,7.4-10.3s3.6-9,3.6-9s-0.7-2.9,4.7-4.3c5.4-1.4,9-4,9-4
			S98.8,129.1,98.7,126z"/>
		<path fill="#EFCAC0" d="M122.4,141.1c0,0-2.5,1.1-2.9,2.2c-0.4,1.1,0,3.6-3.2,5.8s-9.8,6.5-13.2,4.7c-0.3-4.3,1.3-9.4,1.3-11.9
			s4.1-3.1,4.1-0.7c0,2.3-1.8,7,0.4,5.6C111.1,145.3,115,141.3,122.4,141.1z"/>
		<path fill="#C75552" d="M27.4,246.2c0,0-17.3-2.5-19.8-2.2c-2.5,0.4-3.6,4.7-3.6,4.7s-1.4,4-1.8,13c-0.4,9-2.5,6.8-2.2,10.8
			s5,10.1,8.6,10.1s9.7-10.1,11.5-15.8c1.8-5.8,6.1-9.4,6.1-9.4L27.4,246.2z"/>
	</g>
	<g>
		<path fill="#9C9CEF" d="M192.9,123c-18.9-0.3-62,6.7-78.7,0c-6.2-2.5-11-8.4-14-15.2c4.7,14.1,13.7,33.1,29,37.2
			c24.1,6.6,63.7,1.3,78.7,2.4s41.4-14.7,48.2-23.9c3.6-4.9,4.2-14.4,4-22.2C254.5,115.4,210.2,123.2,192.9,123z"/>
		<path fill="#F0C8BD" d="M207.8,59.9c0.3-0.8,0.7-1.7,1.3-2.6C208.4,58.2,208,59.1,207.8,59.9z"/>
		<path fill="#F0C8BD" d="M232.3,116.7c0.2-0.7,0.4-1.4,0.6-1.7C232.8,115.3,232.5,116,232.3,116.7z"/>
		<path fill="#F0C8BD" d="M221.3,56.4c1.3-1.1,6.8-3.5,8.6-4.2c-1.4-1.3-1.9-1.5-3.8-1.7c-5.8,0.5-7.9,0.3-12.8-0.3
			s-8.7-3.9-12.6-3.9s-12.1,5.8-14.4,7.3c6.3,0,21.2,2.8,22.7,3.7C211.3,53.9,219.2,55.6,221.3,56.4z"/>
		<path fill="#F0C8BD" d="M236.4,118.2c0.1-0.5,0.1-0.8,0.2-0.9C236.5,117.4,236.5,117.7,236.4,118.2z"/>
		<path fill="#A8D9E5" d="M257.4,96.3c-2.7-10.4-18.2-20.4-29.9-29.8c-11.8-9.3-58.5-10.6-74.3-8c-15.8,2.6-34.4,9.5-39.3,12.5
			c-4.9,3-12.4,12.2-12.9,17.9s2.6,17.9,8.8,26c2.9,3.8,12.9,7.8,22.5,10.8c19.9,0.7,46.8-3,60.7-2.8c13.6,0.2,44.2-4.7,59.1-13.7
			C255.8,104.3,258.3,99.6,257.4,96.3z"/>
		<path fill="#F0C8BD" d="M233.7,121c0.6-2,1-4.4,1.3-5C234.3,117.3,233.9,119.3,233.7,121z"/>
		<path fill="#9593F9" d="M260.6,97c-0.2-1.4-0.6-2.8-1.1-4.1c-0.5-1.4-1.1-2.7-1.9-4C250,75.6,229.9,64.3,209,57.4
			c-34.5-9.8-72.8,1.4-72.8,1.4c-14,3-22.7,9.3-34,18c-3.9,3-5.7,8.7-5.6,15.2c0,1.5,0.1,2.9,0.3,4.4c0.5,3.8,1.6,7.8,3.2,11.4
			c3,6.8,7.8,12.7,14,15.2c4.4,1.8,10.7,2.6,18,2.8c-9.6-3.1-19.5-7-22.5-10.8c-6.2-8.1-9.2-20.3-8.8-26s7.9-14.9,12.9-17.9
			c4.9-3,23.5-9.9,39.3-12.5c15.8-2.6,62.6-1.4,74.3,8c11.8,9.3,27.2,19.4,29.9,29.8c0.9,3.3-1.6,8-5.3,13c4-2.4,6.8-5.1,8-8
			C260.6,99.9,260.8,98.5,260.6,97z"/>
		<path fill="#F0C8BD" d="M207.2,64.6c0.2-1.5,0.1-3.1,0.6-4.7C207,62.2,207.1,64,207.2,64.6z"/>
		<path fill="#0B0B0B" d="M239.7,79.1c0-2.9,4.7-6.8,1.3-11.8c0.3-1.6,2.4-3.1,2.4-3.1l-2.6-1.6l-2.6,2.9c0,0-4.2-2.1-9.2-0.5
			c-2.6,0.3-4.2,0.3-4.2-2.4c0-2.6-0.3-4.5-0.3-4.5s4.7-4,6.8-4.4c0,0,0,0,0,0c-0.6-0.6-1.1-1.1-1.5-1.5c-1.8,0.8-7.3,3.1-8.6,4.2
			c-2.1-0.8-10-2.5-12.2,1c-0.6,0.9-1,1.8-1.3,2.6c-0.4,1.6-0.4,3.2-0.6,4.7c0.1,0.9,4.6-0.8,11,1.9c6.2,2.6,10.3,4.4,19.2,21
			c1.8-2.2,3.6-4.1,5.2-5.5C241.3,81.5,239.7,80.7,239.7,79.1z"/>
		<path fill="#8DB8C4" d="M193.5,99c0.3,1.6-1,3.1-2.5,3.6s-3.2,0.3-4.7,0.1c-0.9-0.1-1.9-0.3-2.8-0.7c0.4,0.9,1.5,1.3,2.5,1.4
			c1,0.1,2-0.1,2.9,0c0.6,0,1.1,0.2,1.7,0.2c1.9,0,3.8-1.6,4-3.5c0.2-1.8-1.1-4.1-3-4.4c-0.3,0.7,0.4,1,0.8,1.5
			C193,97.7,193.4,98.3,193.5,99z"/>
		<path fill="none" d="M232.3,116.7c0.2-0.6,0.4-1.2,0.5-1.6C232.7,115.5,232.5,116.1,232.3,116.7z"/>
		<path fill="none" d="M232.9,115.1c0-0.1,0-0.1,0.1-0.2C232.9,115,232.9,115.1,232.9,115.1z"/>
		<path fill="none" d="M233.7,121c0.6-2,1-4.4,1.3-5C234.3,117.3,233.9,119.3,233.7,121z"/>
		<path fill="none" d="M236.4,118.2c0.1-0.5,0.1-0.8,0.2-0.9C236.5,117.4,236.5,117.7,236.4,118.2z"/>
		<path fill="#F0C8BD" d="M238.1,57.1c1.8,0.1,6.1-0.9,7.9-2.4l-0.8-0.8L235,53.6c0,0-0.1,0.1-0.2,0.3
			C235.3,54.8,236.6,56.6,238.1,57.1z"/>
		<path fill="#8DB8C4" d="M162.3,74.7c-1.1,0.3-2.2,1-2.8,2c-0.9,1.5-0.5,3.6,0.9,4.6c-0.8,0-1.4-0.6-1.8-1.3
			c-0.6-1-0.9-2.2-0.3-3.2c0.3-0.6,0.8-1,1.4-1.3c2.1-1.3,4.9-2,7.3-1.4C165.5,74.6,163.8,74.2,162.3,74.7z"/>
		<path fill="#F0C8BD" d="M232.8,115.1C232.9,115.1,232.9,115.1,232.8,115.1C232.9,115.1,232.9,115.1,232.8,115.1z"/>
		<path fill="#C1A29A" d="M241.2,58.6c1.4,0.1,4.5-1.9,5.9-2.9l-1-1.1c-1.9,1.5-6.1,2.5-7.9,2.4c-1.5-0.5-2.8-2.3-3.3-3.1
			c-0.2,0.3-0.6,0.9-1,1.4c0.3,0.5,0.7,1.1,1.1,1.6C235.7,58,239.3,58.5,241.2,58.6z"/>
		<path fill="none" d="M236.4,118.2c0.1-0.5,0.1-0.8,0.2-0.9C236.5,117.4,236.5,117.7,236.4,118.2z"/>
		<path fill="none" d="M233.7,121c0.6-2,1-4.4,1.3-5C234.3,117.3,233.9,119.3,233.7,121z"/>
		<path fill="none" d="M232.3,116.7c0.2-0.6,0.4-1.2,0.5-1.6C232.7,115.5,232.5,116.1,232.3,116.7z"/>
		<path fill="#F0C8BD" d="M260.1,73.5c-2-2.8-1.9-3.2-3.5-6.9c-1.6-3.7-5.2-6.2-5.2-6.2l-4.3-4.5c-1.4,1-4.5,3-5.9,2.9
			c-1.8-0.2-5.5-0.7-6.3-1.7c-0.3-0.5-0.7-1.1-1.1-1.6c-0.1,0.1-0.3,0.3-0.4,0.4c-0.8,0.8-0.8-0.5-2.1-2.1c-2.2,0.4-6.8,4.4-6.8,4.4
			s0.3,1.8,0.3,4.5c0,2.6,1.6,2.6,4.2,2.4c5-1.6,9.2,0.5,9.2,0.5l2.6-2.9l2.6,1.6c0,0-2.1,1.6-2.4,3.1c3.4,5-1.3,8.9-1.3,11.8
			c0,1.6,1.5,2.5,2.9,2.9c3.4-3.2,5.9-4.6,5.9-4.6s3.3,0.4,4.3,3.8c0.5,3.4,4.7,7.6,6.1,10.8c-6.3,3.1-11.3,12.1-12.4,13.6
			c-1,1.5-3.7,4.9-4.6,6.5c0.6,0.6,1.5,1.5,1,1.5c-0.6,0-1.2-1-1.5-1.4c-1.5-1-4.8-1.9-7-2.2c-2.4-0.3-2.4,1-2.4,1s-4.7,10.5-2.9,11
			c1.4,0.4,2.3-3,3.1-5.3c0.2-0.7,0.4-1.2,0.5-1.6c0,0,0,0,0,0c0-0.1,0-0.1,0.1-0.2c0,0,0,0.1-0.1,0.2c0,0,0,0,0,0
			c-0.2,0.4-0.3,0.9-0.5,1.6c-0.8,2.8-1.7,7.4-0.4,7.4c0.7,0,1.3-1.5,1.8-3.2c0.2-1.7,0.6-3.7,1.3-5c-0.3,0.6-0.7,2.9-1.3,5
			c-0.2,2.1,0,3.9,0.5,3.9c1.3,0,1.9-4.7,2.2-6.7c0.1-0.5,0.1-0.8,0.2-0.9c0,0.1-0.1,0.4-0.2,0.9c-0.2,1.6-0.3,4.8-0.1,5.4
			c0.2,0.8,1.6,0.5,1.6,0c0-1.3,1-6.6,1.3-6.6c5.8,0.3,5-0.5,5.8-0.8s11-9.2,13.3-12.1c2.3-2.9,5.2-5.9,6.8-7.2s2.6-2.1,3.1-3.7
			C268.7,90.5,262.2,76.3,260.1,73.5z"/>
		<path fill="#C1A29A" d="M243,113.5c0.5,0-0.4-0.9-1-1.5c-0.1,0.1-0.1,0.2-0.2,0.3c-0.1-0.1-0.2-0.1-0.3-0.2
			C241.8,112.6,242.4,113.5,243,113.5z"/>
		<path fill="#0B0B0B" d="M232.5,43.5c0,0-3.9-1.3-2.4-7.1s7.1-6.6,7.3-7.6s3.1-3.1,3.9-2.1c0,0,3.9-4.5,10-1
			c6,3.4,8.1,7.3,7.6,11.8s-2.1,5.5-0.8,8.1c1.3,2.6,0.8,14.4-4.2,16.3c-5,1.8-5.8,0.5-8.7,2.1c-2.9,1.6-5.2,4.7-5.5,0.3
			s3.1-7.3,3.1-9.7S232.5,43.5,232.5,43.5z"/>
		<path fill="#F0C8BD" d="M232.3,42.7c0,0,5.8-10.8,8.7-11.5c0.8,0.5,5.2,11.8,7.6,12.8c0.5,1,0.8,0.8,1,0.8s0.8-0.8,1.8-0.3
			s1.3,1.8,1,2.4s-0.3,2.1-1.8,2.4c-0.8,0-1,0-1,0s-0.5,6.8-11.3,7.9C235.4,56.1,231.2,49.6,232.3,42.7z"/>
		<path fill="#C1A29A" d="M232.9,115c0,0-0.5,2.5-0.9,3.2C231.7,118.2,232.9,115.2,232.9,115z"/>
		<path fill="#C1A29A" d="M235,116c0.2,0-0.9,4.7-1.2,5.5C233.3,121.4,234.9,116.2,235,116z"/>
		<path fill="#C1A29A" d="M236.7,117c0.1,0-0.3,2.3-0.2,3.2C236,120.2,236.6,117.2,236.7,117z"/>
		<path fill="#8DB8C4" d="M160.7,77.5c-0.3,2,1.7,3.3,2.5,3.9s4.5,1.4,7.5,1.4s4.7-0.3,5.6-1.4c-0.3,0.8-2.8,2.2-5.6,2
			c-2.8-0.3-8.1-0.8-8.9-2s-1.4-2.5-1.4-3.1C160.5,77.8,160.7,77.5,160.7,77.5z"/>
		<path fill="#8DB8C4" d="M172.5,99.6c-0.3,2,1.7,3.3,2.5,3.9c0.8,0.6,4.5,1.4,7.5,1.4c3.1,0,4.7-0.3,5.6-1.4
			c-0.3,0.8-2.8,2.2-5.6,2c-2.8-0.3-8.1-0.8-8.9-2c-0.8-1.1-1.4-2.5-1.4-3.1C172.2,99.9,172.5,99.6,172.5,99.6z"/>
		<path fill="#F0C8BD" d="M218.3,66.5c-6.4-2.7-10.9-1-11-1.9c-6.2,0.3-9.3,2-10.9,3.8c2.9,5.6,11.1,16.1,33.7,30.7
			c2.3-4.7,4.9-8.5,7.4-11.6C228.6,71,224.5,69.1,218.3,66.5z"/>
		<path fill="#F0C8BD" d="M181.4,77.4c-1.8-2.5-3.5-4.7-4.4-5.8c-2.9-3.1-5.5-1-7.1-1c-1.6,0-4.5,2.6-5.5,5c-0.4,0.8-0.8,1.3-1.5,2
			C167.5,77.8,174.8,78,181.4,77.4z"/>
		<path fill="#F0C8BD" d="M192.1,100.8c-1.8-2.5-3.5-4.7-4.4-5.8c-2.9-3.1-5.5-1-7.1-1s-4.5,2.6-5.5,5c-0.4,0.8-0.8,1.3-1.5,2
			C178.2,101.2,185.5,101.4,192.1,100.8z"/>
	</g>
</g>
</svg>
