<?xml version="1.0" encoding="utf-8"?>
<!-- Generator: Adobe Illustrator 26.5.0, SVG Export Plug-In . SVG Version: 6.00 Build 0)  -->
<svg version="1.1" id="Layer_1" xmlns="http://www.w3.org/2000/svg" xmlns:xlink="http://www.w3.org/1999/xlink" x="0px" y="0px"
	 viewBox="0 0 322.7 300.1" enable-background="new 0 0 322.7 300.1" xml:space="preserve">
<g>
	<path fill="#E8E6BE" d="M203,257.1c-1-11.3-11-57.6-7.8-64s24.2-53,24.2-53l24.2-13.1c0,0,20.3,29.2,26.2,52.2
		c5.8,22.9,4.2,29.8,11.4,38.8s6,21,9.8,27.6c1.5,2.7,6.5,11.1,11.9,20.2c4.4-6.5,8.5-14.1,12.1-22.7c20-47.9-1.8-59.6-33.1-104.2
		c-31.3-44.5-13.7-72.5-24.6-113.7C246.4-16,231.8,13.9,194.6,9.8C157.4,5.6,152.5-5.6,104,3.5S40.2,89.6,40.2,89.6
		s-17.7,43.9-18.8,84.3c-1.1,40.4-38.8,69.9-11.4,99.6c22.7,24.6,34.4,18.2,54.4,19.5c0.3-4.5,0.4-11.3-0.6-19.6
		c-1.8-15.3-5-15.6-2.6-29.1c2.4-13.6,6-24.4,8.8-42.6s3.6-51.1,3.6-51.1l31.4-18.2l30.4,4.9l-2.2,2.9l10.6,26.5
		c0,0,6.4,11.3,3.6,20c-2.8,8.8,7.6,64.9,11,80.4c1.5,6.6,1.8,13.4,1.8,19c20-4.3,31.6-1.9,43.2,2.3
		C203.5,276.6,203.6,263,203,257.1z"/>
	<path fill="#010101" d="M184.4,36.3c0,0,7-16.4,19.2-14.3s19.9-7.7,23.5-0.2c3.5,7.6,0.1,22.7,8.1,29S249.4,51,252,64.1
		s-3,29.7,1.2,42.1s14.4,15,13.4,27.6s-3.8,29.2-12.8,25.8c-9-3.5-16.8-20.3-26.7-18s-20.9,19.4-30.3,5.6s-4.8-34.6-15.5-39.4
		c-9.5-4.2-8.7-20.7-14-38c-3-9.8-12-28.7-1.6-39.6C170.6,25.2,184.4,36.3,184.4,36.3z"/>
	<path fill="#F6B5A0" d="M115.4,59.8l-8.3,37.4l1.1,30.8l6.2,10.1c0,0,18.6,2.5,23.8-1.2s12.6-19.1,12.6-19.1l9.3-21.6l3.6-21
		L162,54.8l-14.2-14l-21.2,9L115.4,59.8z"/>
	<path fill="#5E8873" d="M158.3,267c-3.4-15.4-13.8-71.6-11-80.4c2.8-8.8-3.6-20-3.6-20l-10.6-26.5l2.2-2.9l-30.4-4.9l-31.4,18.2
		c0,0-0.8,32.9-3.6,51.1s-6.4,29-8.8,42.6c-2.4,13.6,0.8,13.8,2.6,29.1c1,8.3,0.9,15.1,0.6,19.6c4.1,0.3,8.6,0.9,13.5,2.1
		c29.2,7.4,43.2,0,79.8-8.5c0.8-0.2,1.7-0.4,2.5-0.6C160.2,280.4,159.8,273.6,158.3,267z"/>
	<path fill="#010101" d="M143.4,26.6c0,0-20.8-6.9-36.6,10.1s-15,34.1-23.6,44s-15,24.9-25.2,30.2c-10.2,5.3-15.4,8.5-10.6,21.6
		s25.8,28.3,32.6,30.2c6.8,1.8,14.8,9.4,27.2,10.4c12.4,0.9,20.2-4.1,15-14.7c-5.2-10.6-6.5-28.2-7.5-40.6s3.6-27.4,6-31.5
		s-5-7.1-4.2-10.4c0.8-3.2,6.4-4.8,6.4-2.8s0.6,2.3,1.2,0.7c0.6-1.6,6.8-18,13.2-21.6c6.4-3.7,9.2-3.9,15.6,0.5s8.8,15,8.8,15
		s2.4,17.3-4.8,27.6s-12,13.1-12,13.1s-12,4.4-13.8,7.8s-2.6,12.7-1,17.3c1.6,4.6,1.8,9,3.6,9.2s17.2-0.9,21-2.5s8.8-3,9.8-6.4
		c1-3.5-3.6-16.8-3.2-25.3c0.4-8.5,3.4-10.8,4.8-18.9s4.2-11.7,1.2-19.6c-3-7.8-3-10.4-3.2-18s-9.2-19.6-14-22.1
		S143.4,26.6,143.4,26.6z"/>
	<path fill="#75241F" d="M302.9,265.8c-5.4-9.1-10.4-17.5-11.9-20.2c-3.8-6.7-2.6-18.7-9.8-27.6s-5.6-15.9-11.4-38.8
		S243.6,127,243.6,127l-24.2,13.1c0,0-21,46.5-24.2,53c-3.2,6.4,6.8,52.7,7.8,64c0.5,5.9,0.5,19.5,0.4,31.2c8.5,3,17,7,28.8,10
		C255.8,304.4,282.9,295.6,302.9,265.8z"/>
	<path fill="#9B6847" d="M176.1,152.3c0,0,8.4-1.2,15,11.3c0.6,1.6,1.2,4.1,1.2,4.1s0.5,2.1,1.5,0c1.1-2.1,2.3-0.2,2.3-0.2
		s1,3,0.6,6.2s-2.6,3.9-3.4,3.2c-0.8-0.7-1,2.3-1,2.3s-2.2,6.9-5,9.9s-5.4,6.7-11.2,6.1s-12-6.1-13.8-9.8s-2.6-7.1-2.6-7.1
		s-4,0.9-5.2-3.2c-1.2-4.1,1.1-7,2.3-6.1s2,1.2,2.4-0.2S160.8,153.8,176.1,152.3z"/>
	<path fill="#F59F90" d="M149.5,180.2C149.5,180.2,149.6,180.2,149.5,180.2c0.2-0.2,3.3-2.6,7,0.7c3.8,3.5,5.4,6.9,16.2,8.8
		c10.8,1.8,15,0.5,28.6-3.9s12.6-5.1,16.5-0.9s6.9,10.8,7.7,15.7c0.8,4.8,1.6,9.7,1.6,9.7s-1.2,33.2-6,38.2
		c-4.8,5.1-13.2,10.1-13.2,10.1s-10.8,8.5-28.4-1.4c-0.8-0.7-2.2,5.1-6.8,2.1s-31.3-29.6-32.9-38.1c-1.6-8.5-2-15.4-2-15.4
		s-6.4-13.6,2-21.4C146.7,180.1,149.3,180.2,149.5,180.2z"/>
	<path fill="#F6B5A0" d="M175.5,242.4c0,0,1.4,15.4-2.8,16.8c-4-0.5-42.6,0-68.8-37.5c11.8-9.7,31.6-25.3,31.6-25.3
		S138.1,236.5,175.5,242.4z"/>
	<path fill="#8C544E" d="M194.5,51.9c0,0,6.2-6.7,15.6,1.4c9.4,8.1,9.6,16.8,11.8,19.8s-0.6-4.8,2-4.1c2.6,0.7,4.6,7.6,2.8,9.4
		s-3,1.4-2.2,5.3s2.4,19.1,10.4,27.9c5,6,10.8,18.4,10.8,18.4s-7,10.4-26.2,10.1c1.2-5.1,0.9-19.7-4.3-24.8s-16-3.7-23.6-17
		C184,85,179.2,61,194.5,51.9z"/>
	<path fill="#8C544E" d="M257.3,233c0,0-5.1-15-10.1-16.1s-11.2-1.2-13-4.6s-5.9-6.6-7.8-6c-1.8,0.7-7.4,9.2-19.8,8.5
		c-12.4-0.7-21.2-2.3-26.4-6.7s-9-9.7-12.4-9.9s5.8,7.1,5.8,7.1s-8.6-9.4-9.2-7.4s7.4,9.4,7.4,9.4s-9.2-11.5-9.8-9.2
		s8.6,10.8,8.6,10.8s-10.3-11.4-9.9-7.8c0.5,3.6,7.3,13.1,9.1,14.5s9.8,7.4,15.2,13.8c5.4,6.4,21,20.7,35.8,21.6
		C235.6,252.1,255,238.8,257.3,233z"/>
</g>
</svg>
