<?xml version="1.0" encoding="utf-8"?>
<!-- Generator: Adobe Illustrator 26.5.0, SVG Export Plug-In . SVG Version: 6.00 Build 0)  -->
<svg version="1.1" id="_x32_" xmlns="http://www.w3.org/2000/svg" xmlns:xlink="http://www.w3.org/1999/xlink" x="0px" y="0px"
	 viewBox="0 0 800 800" style="enable-background:new 0 0 800 800;" xml:space="preserve">
<g>
	<path style="fill:#663D90;" d="M400,0C179.1,0,0,179.1,0,400c0,220.9,179.1,399,399.9,400h0.5l0.5,0c42.4,0.1,77.4-13.3,101.5-35.3
		c24.2-21.9,37.1-52,37-82.4c0-14.3-3-28.6-8.6-42.2c9.5-5.4,15.8-10.3,17.7-11.6c6.5-4.6,25-29.3,12-49.7
		c-13-20.3-59.4-66.7-72.1-74.5c-12.6-7.8-33.7-0.2-43.9,14.7c-10.2,14.9-18.2,10.5-18.2,10.5s-28.9-23.4-68.9-104.1
		c-40-80.8-41-117.9-41-117.9s1.3-9.1,19.4-8.2c18,1,36.9-11.2,38.3-26c1.5-14.8-7.3-79.8-15.6-102.5c-8.3-22.7-39.2-22.9-46.8-20.5
		c-7.6,2.3-86,21.4-92.2,103.5c-6.2,82,14.9,156.5,45.2,217.7c30.3,61.1,76.8,123.1,145.8,167.8c28,18.1,54.8,20.5,77.3,16.7
		c3.9,8.7,5.8,17.6,5.9,26.5c0,17.6-7.2,34.9-22,48.4c-14.8,13.4-37.6,23.3-70.6,23.4l-0.8,0C204.4,753.1,45.9,595.5,45.9,400
		c0-97.8,39.6-186.2,103.7-250.4C213.8,85.5,302.1,46,400,45.9c97.8,0,186.2,39.6,250.4,103.7C714.5,213.8,754,302.1,754.1,400
		c0,60.4-15.1,117.1-41.7,166.8c-14.9,27.9-33.4,53.5-55,76.3c-8.7,9.2-8.3,23.8,0.9,32.5c9.2,8.7,23.8,8.3,32.5-0.9
		c24.3-25.7,45.2-54.7,62.1-86.2C782.9,532.4,800,468.1,800,400C800,179.1,620.9,0,400,0z"/>
</g>
</svg>
