<?xml version="1.0" encoding="utf-8"?>
<!-- Generator: Adobe Illustrator 26.5.0, SVG Export Plug-In . SVG Version: 6.00 Build 0)  -->
<svg version="1.1" id="Layer_1" xmlns="http://www.w3.org/2000/svg" xmlns:xlink="http://www.w3.org/1999/xlink" x="0px" y="0px"
	 viewBox="0 0 329.4 749" style="enable-background:new 0 0 329.4 749;" xml:space="preserve">
<path style="fill:#877576;" d="M244.5,678.5V749h27v-74.5c0-3.6-2.9-6.5-6.5-6.5H123c-2.7,0-5,1.7-6,4h121
	C241.6,672,244.5,674.9,244.5,678.5z"/>
<path style="fill:#002131;" d="M168.5,0c0,0,109,79,105,216c-2,31-12,84,16,52s49,17,36,40s-16,35-56,132c-6,16-24,40,11,27
	s64,15,8,77c-24,24-75,27-35,48s-37,90-37,90H132c0,0-109-31.5-58-39.5s63,15,0-70s-74-173-74-173l88,66c0,0,66,42,29-36
	s-73-91-31-103s59-11,28-44s-60-92-16-98s48,37,53-26S168,88.5,168.5,0z"/>
<path style="fill:#030405;" d="M187.5,674c0,0-7-107,41-133c28-14,45-30,35-25s-61,36-61,36s-8,7-7-18s9-107,9-107l47-54
	c0,0,21-26,0-8s-47,51-47,51s-6-82,1-131s27-129-10-219c14,70,26.5,89.5,2.5,210.5c-23-21-55-12-75-28c-3,8,26,16,26,16s28,5,42,15
	c1,8,1,42,2,77s4,107-6,128c-9-21-29-58-54-90c5,24,39,62,51,99c1,22,0,67,0,67s7,18-25,2s-82-29-117-85c8,30,62,79,130,103
	c6,4,9-3,9,25s-3,81-3,81L187.5,674z"/>
<path style="fill:#9C9C9C;" d="M116.5,674.5c0-0.9,0.2-1.7,0.5-2.5H96c-3.6,0-6.5,2.9-6.5,6.5V749h27V674.5z"/>
<path style="fill:#9C9C9C;" d="M116.5,749h128v-70.5c0-3.6-2.9-6.5-6.5-6.5H117c-0.3,0.8-0.5,1.6-0.5,2.5V749z"/>
</svg>
