<?xml version="1.0" encoding="utf-8"?>
<!-- Generator: Adobe Illustrator 26.5.0, SVG Export Plug-In . SVG Version: 6.00 Build 0)  -->
<svg version="1.1" id="Layer_1" xmlns="http://www.w3.org/2000/svg" xmlns:xlink="http://www.w3.org/1999/xlink" x="0px" y="0px"
	 viewBox="0 0 1125.7 954" style="enable-background:new 0 0 1125.7 954;" xml:space="preserve">
<style type="text/css">
	.st0{fill:#4C1E3E;}
	.st1{fill:#B3448C;}
	.st2{fill:#A33A83;}
	.st3{fill:#190301;}
	.st4{fill:#221021;}
	.st5{fill:#702F5C;}
	.st6{fill:#D56540;}
	.st7{fill:#E2A38F;}
	.st8{fill:#A14A43;}
	.st9{fill:#D24459;}
	.st10{fill:#D39788;}
	.st11{fill:none;}
	.st12{fill:url(#SVGID_1_);}
	.st13{fill:url(#SVGID_00000080918489539948817590000016687854343710441088_);}
	.st14{fill:url(#SVGID_00000067238019342849023320000014428745453087773072_);}
	.st15{fill:url(#SVGID_00000036227200458986982870000017092572164218788013_);}
	.st16{fill:url(#SVGID_00000023982965665078854150000006517699354668331180_);}
	.st17{fill:#011F29;}
	.st18{fill:#9D5603;}
	.st19{fill:url(#SVGID_00000070818425050263329490000017304119321159568780_);}
	.st20{fill:#C99081;}
	.st21{fill:none;stroke:#9D5603;stroke-miterlimit:10;}
</style>
<polyline class="st0" points="833.8,942.9 821.8,907.2 903.7,886.9 908.6,910.8 894.1,937.8 834.1,944.4 "/>
<polygon class="st1" points="798.6,0.1 887.3,0.1 919.4,458.8 837.1,565 781.4,542.2 "/>
<polygon class="st2" points="279.1,929.6 316,937.8 380.1,847.7 533.8,820.6 578.7,803.8 556.5,776 352.7,793 265.9,882.3 "/>
<polygon class="st0" points="911.3,438.8 1065.2,455.9 1045.2,605 782.9,709.7 742.5,798.1 611.9,952.4 551.9,953.9 598,825.2 
	785.8,564.8 "/>
<path class="st3" d="M261.8,918.7c-5.1,10.7-10.1,22.5-15,35.3h45.6l-9.8-33L261.8,918.7z"/>
<path class="st4" d="M757.8,20.5C758.2,12,757,5.3,755,0h-22.2H649c-5.7,23.1-8.4,62.1-57.6,76c-80,0-85-75-85-75s2-0.4,5.6-1h-35.6
	c-0.3,17.9,5.2,45,29.1,81.1C552.4,152,534.4,197,534.4,197l161,9l36.7-9.7l42.8-11.3c0,0,47.5-18,49.5-80S756.2,51,757.8,20.5z"/>
<path class="st1" d="M732.1,196.3l-36.7,9.7l-161-9c0,0,18-45-28.9-115.9C481.6,45,476,17.9,476.3,0h-58.2
	c-12.6,11-30.7,33.9-38.8,78c-13,71-14,92-4,138s31,111,12,152S728,546,728,546l44.5,2.9l-36-96.7L732.1,196.3z"/>
<path class="st1" d="M837.9,56.1c22.5,50.9-13.5,77.2,0,124.5s57.2,197.1,31.4,275.7c-13.7,41.6-36.7,74-55.2,95.3l136.5,9
	L1081.4,249l23-209c0,0-2.6-21.7-11.3-40H823C821.9,6.3,822.7,21.7,837.9,56.1z"/>
<path class="st2" d="M837.9,180.7c-13.5-47.3,22.5-73.7,0-124.5c-15.2-34.4-16-49.8-14.9-56.1h-67.9c2,5.3,3.2,12,2.8,20.5
	c-1.6,30.5,68.6,22.5,66.6,84.5s-49.5,80-49.5,80l-42.8,11.3l4.5,255.9l36,96.7l41.4,2.7c18.6-21.3,41.5-53.7,55.2-95.3
	C895.1,377.7,851.4,228,837.9,180.7z"/>
<path class="st5" d="M391.4,800c23-4,85,2,122,3s56-25,56-25l-9.5-22.1L453.4,761l-146,29l-55,95l-8,36.5c11.5,2.7,26.9,6.3,45,10.4
	l0,0C300.3,820.9,368.4,804,391.4,800z"/>
<polygon class="st0" points="201.8,510.6 78.1,580.3 94.8,720.3 169.3,693.5 280.8,635.3 336.8,596.3 331.2,471.7 "/>
<path class="st5" d="M316.3,492.8c0,0-155.9,55.2-196.9,60.2s-76-34-76-34l2-13c0,0,3-12,69-33s257.1-78,257.1-78L316.3,492.8z"/>
<path class="st1" d="M152.4,951l-26-33l-25.3-189.5l19.3-77.5c0,0,47-151-45-152s-74,106-74,106s21,165,37,234
	C51.7,896.5,104,940.9,121,954h20.2L152.4,951z"/>
<g>
	<path class="st6" d="M637.8,31.2l-20.2,14.2l-31.7,27.1l2.8,8.6h46.6C633,61.4,635.6,42.5,637.8,31.2z"/>
	<path class="st7" d="M654.9,128.5c-12.2-13.6-17.6-30.8-19.6-47.4h-46.6l9.2,28.4c0,0,9,28-13,30c-1.8,0.2-3.7,0.3-5.5,0.4v17.4
		c0,0-5,27.7,31,27.7s53-27,53-27s4.2-7.1,8.5-15.1C666,139.2,660.2,134.4,654.9,128.5z"/>
</g>
<path class="st8" d="M678.7,573.3c0,0-2.1,0.3-5.7,1.7L678.7,573.3L678.7,573.3z"/>
<path class="st2" d="M784.4,580.7c0,0,13.1-10.1,29.6-29l-41.4-2.7L784.4,580.7z"/>
<path class="st9" d="M559.9,44.5c12,5,26-12,27-24c-16,19-34,13-34,13S547.9,39.5,559.9,44.5z"/>
<path class="st10" d="M562.9,13.5c6,0,6.5-7.3,6.5-7.3l-11.5,1.3C557.9,7.5,556.9,13.5,562.9,13.5z"/>
<path class="st11" d="M391.4,800c23-4,85,2,122,3c19.4,0.5,33.8-6.3,43.1-13c3.2-7.5,6.1-14.5,9-21l-0.2-0.5
	c-15.7,6.9-44.7,17.3-82.9,20.5c-59,5-108,2-130,16c-18,11.5-54.3,35.8-88.2,113.7l19.1,2.3l9,33h95.9
	c-36.5-7.9-70.9-15.7-98.8-22.1C300.3,820.9,368.4,804,391.4,800z"/>
<path class="st11" d="M836.2,954l-2.5-11.1c-12.7,4.2-25.6,7.9-38.5,11.1H836.2z"/>
<path class="st3" d="M833.7,942.9l2.5,11.1h75.1l-2.8-43.3C885.1,923.8,859.7,934.4,833.7,942.9z"/>
<path class="st2" d="M565.3,768.5l0.2,0.5c0.1-0.2,0.2-0.5,0.3-0.7C565.6,768.3,565.5,768.4,565.3,768.5z"/>
<path class="st2" d="M553.8,796.4c0.9-2.2,1.8-4.3,2.7-6.5c-9.4,6.7-23.8,13.5-43.1,13c-37-1-99-7-122-3s-91.1,20.9-102,131.9
	c28,6.4,62.3,14.2,98.8,22.1h155.5C512.1,900.4,527.8,858.6,553.8,796.4z"/>
<linearGradient id="SVGID_1_" gradientUnits="userSpaceOnUse" x1="115.3269" y1="539.1827" x2="211.4017" y2="567.438" gradientTransform="matrix(1 0 0 1 0 186)">
	<stop  offset="0" style="stop-color:#005B5E"/>
	<stop  offset="1" style="stop-color:#011F29"/>
</linearGradient>
<path class="st12" d="M246.9,678.2c57.5-34.1,99.9-43.7,121.2-46.2l-48.7-67l-97,31c0,0-115,38-125,157
	c-6.8,80.4,18.9,156.8,36.3,197.8L152.4,835C152.4,835,162.4,728.3,246.9,678.2z"/>
<linearGradient id="SVGID_00000158744757132279938870000000601586891961571221_" gradientUnits="userSpaceOnUse" x1="171.2554" y1="572.2869" x2="437.1386" y2="439.3733" gradientTransform="matrix(1 0 0 1 0 186)">
	<stop  offset="0" style="stop-color:#005B5E"/>
	<stop  offset="1" style="stop-color:#011F29"/>
</linearGradient>
<path style="fill:url(#SVGID_00000158744757132279938870000000601586891961571221_);" d="M422.2,660.3l5.7-28.4l-44.6-0.9
	c0,0-5.3-0.3-15.3,0.9l29.9,41.1L422.2,660.3z"/>
<linearGradient id="SVGID_00000028288587770408408630000002407965178514268855_" gradientUnits="userSpaceOnUse" x1="241.5269" y1="712.8597" x2="507.4102" y2="579.9461" gradientTransform="matrix(1 0 0 1 0 186)">
	<stop  offset="0" style="stop-color:#005B5E"/>
	<stop  offset="1" style="stop-color:#011F29"/>
</linearGradient>
<path style="fill:url(#SVGID_00000028288587770408408630000002407965178514268855_);" d="M133.7,950.8l-0.5,3.2h1.9
	C134.6,953,134.1,951.9,133.7,950.8z"/>
<path class="st2" d="M221.3,916c0,0,5.5,1.3,15.3,3.6c1.2-10.8,2.8-23.2,4.6-37.3L221.3,916z"/>
<linearGradient id="SVGID_00000057846117863386825090000011423124231532009662_" gradientUnits="userSpaceOnUse" x1="110.4577" y1="546.2795" x2="231.8593" y2="598.4556" gradientTransform="matrix(1 0 0 1 0 186)">
	<stop  offset="0" style="stop-color:#005B5E"/>
	<stop  offset="1" style="stop-color:#011F29"/>
</linearGradient>
<path style="fill:url(#SVGID_00000057846117863386825090000011423124231532009662_);" d="M168.7,954L247,846.3
	c23.6-107.3,98.9-145.8,98.9-145.8L398,673l-29.9-41.1c-21.2,2.6-63.7,12.1-121.2,46.3C162.4,728.3,152.4,835,152.4,835l-18.7,115.8
	c0.5,1.1,0.9,2.2,1.4,3.2H168.7z"/>
<linearGradient id="SVGID_00000173163109063978555030000006250858849683905690_" gradientUnits="userSpaceOnUse" x1="207.8474" y1="645.4865" x2="473.7307" y2="512.573" gradientTransform="matrix(1 0 0 1 0 186)">
	<stop  offset="0" style="stop-color:#005B5E"/>
	<stop  offset="1" style="stop-color:#011F29"/>
</linearGradient>
<path style="fill:url(#SVGID_00000173163109063978555030000006250858849683905690_);" d="M368.1,631.9
	c-21.2,2.6-63.7,12.1-121.2,46.3C162.4,728.3,152.4,835,152.4,835l-18.7,115.8c0.5,1.1,0.9,2.2,1.4,3.2h33.7h64.3
	c0.8-9.3,1.9-20.6,3.5-34.4c1.2-10.8,2.8-23.2,4.6-37.3c0.5-4.1,1.1-8.4,1.7-12.8c1.1-8.1,2.5-15.8,4.1-23.2
	c23.6-107.3,98.9-145.8,98.9-145.8L398,673L368.1,631.9z"/>
<path class="st17" d="M428,631.9l-5.7,28.4L398,673l-52.1,27.5c0,0-75.3,38.5-98.9,145.8c-1.6,7.4-3,15.1-4.1,23.2
	c-0.6,4.4-1.2,8.7-1.7,12.8c-1.9,14.1-3.4,26.5-4.6,37.3c-1.6,13.8-2.7,25.1-3.5,34.4h2.1h15.2c4.5-12.9,9.2-24.6,13.8-35.3
	c34-77.9,70.2-102.2,88.2-113.7c22-14,71-11,130-16c38.2-3.2,67.2-13.6,82.9-20.5c0.2-0.1,0.3-0.1,0.5-0.2
	c4.4-10.2,8.4-19.4,12.3-28.2c13.6-30.9,24.9-56.1,41.3-98.1c0.8-2.1,1.7-4.1,2.5-6.1L428,631.9z"/>
<path class="st18" d="M578.6,183.2c-1-30.2-27.8-36.5-27.8-36.5s-22-13.3-42.4,27.6s-45.7,115.2-45.7,115.2l-9.2,27.9
	c27.5,16.6,69.2,42.1,84.3,51.4c9.2-25.3,22.1-62,27.9-84.9C575.4,246.3,579.6,213.4,578.6,183.2z"/>
<linearGradient id="SVGID_00000000204699559860395460000001557960464288193679_" gradientUnits="userSpaceOnUse" x1="423.3198" y1="143.101" x2="667.5679" y2="288.2765" gradientTransform="matrix(1 0 0 1 0 186)">
	<stop  offset="0" style="stop-color:#CF9A01"/>
	<stop  offset="1" style="stop-color:#BF7500"/>
</linearGradient>
<path style="fill:url(#SVGID_00000000204699559860395460000001557960464288193679_);" d="M754.9,206.5l-13-52c0,0-37.3,9.3-70-11.6
	c-4.3,8-8.5,15.1-8.5,15.1s-17,27-53,27s-31-27.7-31-27.7v-17.4c-20.5,1.4-42.3,1-51.5,16.6c-2.2,3.8-4.5,8.2-6.8,12.8
	c-6.7,12.1-37.2,68.1-40.7,87.7c-1.6,8.5-2.5,16.2-3.1,22.3c-0.7,7.7-0.9,13.1-1,14.9c15.1-0.7,35-1.5,47.5,0.6
	c17.3,3,26.3,10.6,30.9,14.1s16.7,9.1,20.4,12.9c3.7,3.7,22.5,28.7,25.6,35c3.1,6.2,12.5,15.6,9.1,18.7s-7.5,3.1-11.9,0.6
	c2.8,1.9,5.9,5.3,3.7,6.9s-6.1,5.6-12.1,0c0.8,3.7-5.1,4.4-8.5,1.9c-1.9-1.3-3.3-2.8-4.4-3.2c-0.7-0.3-1.3-0.2-1.9,0.6
	c-0.2,0.3-0.4,0.6-0.6,1.1c-1.6,3.7-4.1,4.1-10.3,1.9s-33.1-11.6-37.2-14.4s-11.2-2.8-15.6-4.1s-20-5-22.5-6.6s-17.6-6.8-21.5-9.8
	c-3.8-3-9.1-9.2-15.4-6.1c-6.2,3.1-30.6,9.4-49.6,22.2s-45,28.7-48.4,30.6c-1.4,0.7-5.1,2.5-8.7,3.1
	c-23.7,29.3-51.8,77.9-45.2,138.3c11,101,65,119,65,119s22,25,156,20c50-2,94-24,94-24l200-94l6-44L754.9,206.5z"/>
<g>
	<path class="st7" d="M649,581.7l-25.1-57.5l-66.2,24l-22.2,7.9c0,0-7.4,3.9-15.1,1.4c-7.6-2.5-17.6-6.8-19-8.6
		c-1.4-1.7-11.4-5.8-14.2-8.3c-2.9-2.6-4.7-3.4-10-4s-13-1.7-13-1.7s-17.9-1.8-25.2-6.8s-17.1-5.8-17.7-3
		c-0.6,2.8,1.6,13.5,5.5,15.5s14.1,9.9,18.4,10.4s10.8,0,13.5,3.8s3.3,12.7-7,16.3c-10.2,3.6-12.3,5.2-23.1,5.2s-28.8-0.2-38-2.9
		c-7.8-2.3-14.1,2.1-12.4,5.4c-3.1-0.4-5.5-0.1-6.2,1.3c-1.9,3.9-1,7.4,4.6,9.6c-1.7,0.3-3,1.2-2.9,3c0.2,2.6,2,4.3,4.2,5.3
		c-2.6-0.2-4.6,0.1-3.8,1.8c2.1,4,11.6,6.7,16.1,8.9s10.9,7.3,16.8,8.6c5.9,1.3,13.7,2.2,19.1,4.8c5.4,2.5,18.1,5,25.7,4.9
		s36.8-8.4,36.8-8.4s8.1-4.4,16.1-4.8s10.8-5.4,21.2-7.4s7.2-2,15.7-6.4s17.2-11.3,36.9-11.9c0.6,0,1.2-0.1,1.8-0.2L649,581.7z"/>
	<path class="st20" d="M398.4,588c0,0-16.4-1.1-20.2-9.1C383.6,583.1,386.4,586,398.4,588z"/>
	<path class="st20" d="M399.4,596c0,0-13.6,0.6-22.8-6.2C384.2,593.2,388.4,596,399.4,596z"/>
	<path class="st20" d="M391.4,605c0,0-8.9-1.9-13.4-6.9C380.8,599.9,385.4,604,391.4,605z"/>
</g>
<path class="st0" d="M1124.4,107c-8-104-43.4-93.5-43.4-93.5S1004.4,3,1000.4,121c0,0-21.1,256.3-46.8,371.6
	c25.6-4.4,49.8-5.3,61.8,3.1c32,22.3,29,37.3,29,37.3s6,8-16,17s-273.2,81.9-273.2,81.9l-3.5-0.2c3,86.6-29.9,112-35.3,119.3
	c-5.5,7.5-3.5,8.5-34.5,40.5c-29,30-54.6,29.2-85.7,75.5c-2.1,3.1-4.2,6.5-6.4,10c-21.8,36.1-18.6,62.6-13.4,77h19.9h199
	c12.8-3.3,25.7-6.9,38.5-11.1c26-8.5,51.4-19.1,74.8-32.1c7.2-4,14.1-8.2,20.9-12.7c129-86,170-444,170-444S1132.4,268,1124.4,107z"
	/>
<path class="st18" d="M635.4,599c0,0,189-76,212.1-109.7S861.4,376,861.4,376s-16-79-28-116s-26-67-43-92s-43-16-43-16
	s-25.7,0.5-21.1,46s23,121.8,23,121.8l18.8,75.2c0,0,17.7,46.2-23.3,73.3c-41,27.2-123,54.9-123,54.9s1,32.4,5.5,43.8
	C631.9,578.5,635.9,590.5,635.4,599z"/>
<path class="st1" d="M751.7,631.7c-0.1-2.2-0.2-4.4-0.3-6.7c-0.2-2.7-0.6-5.3-1.1-7.8c-9.8-45.1-71.6-44-71.6-44l-5.7,1.7
	c-7.1,2.9-20,10.2-33.4,28.7c-6,8.3-12,18.8-17.7,32.2c-0.8,2-1.7,4-2.5,6.1c-16.4,42-27.7,67.2-41.3,98.1
	c-3.9,8.8-7.9,18-12.3,28.2c-0.1,0.2-0.2,0.5-0.3,0.7c-2.8,6.6-5.8,13.5-9,21c-0.9,2.1-1.8,4.3-2.7,6.5
	c-26,62.1-41.7,104-10.1,157.6h32.7c-5.2-14.4-8.4-40.9,13.4-77c2.2-3.6,4.3-6.9,6.4-10c31.1-46.2,56.7-45.5,85.7-75.5
	c31-32,29-33,34.5-40.5C721.8,743.7,754.7,718.3,751.7,631.7z"/>
<path class="st5" d="M1044.4,533c0,0,3-15-29-37.3c-12-8.4-36.2-7.5-61.8-3.1c-42.6,7.3-89.1,24.4-89.1,24.4l-185.8,56.3
	c0,0,61.8-1.1,71.6,44c0.5,2.4,0.9,5,1.1,7.8c0.1,2.3,0.2,4.5,0.3,6.7l3.5,0.2c0,0,251.2-72.9,273.2-81.9S1044.4,533,1044.4,533z"/>
<path class="st7" d="M512.4,0h-0.5h-5.6v1c0,0,5,75,85,75c49.2-13.9,51.9-52.9,57.6-76H512.4z M557.9,7.5l11.5-1.3
	c0,0-0.5,7.3-6.5,7.3S557.9,7.5,557.9,7.5z M559.9,44.5c-12-5-7-11-7-11s18,6,34-13C585.9,32.5,571.9,49.5,559.9,44.5z"/>
<path class="st21" d="M621.9,523.2"/>
<path class="st7" d="M402.2,366.5c19-12.8,43.4-19,49.6-22.2c6.2-3.1,11.6,3.1,15.4,6.1c3.8,3,19,8.2,21.5,9.8
	c2.5,1.6,18.1,5.3,22.5,6.6s11.6,1.2,15.6,4.1s30.9,12.2,37.2,14.4s8.7,1.9,10.3-1.9c0.2-0.5,0.4-0.8,0.6-1.1
	c-1.8-0.6-14.8-14.8-19.4-19.8c3.5,0.8,21.3,19.3,21.3,19.3c1.1,0.4,2.5,1.9,4.4,3.2c3.4,2.5,9.3,1.9,8.5-1.9
	c-3.2-3.3-17.2-22.9-23.7-33c4.2,4.2,23.7,33,23.7,33c6,5.6,9.9,1.6,12.1,0s-0.9-5-3.7-6.9c-0.3,1-16.7-21.9-21.7-30
	c5,4.2,21.7,30,21.7,30c4.4,2.5,8.4,2.5,11.9-0.6c3.4-3.1-5.9-12.5-9.1-18.7c-3.1-6.2-21.9-31.2-25.6-35
	c-3.7-3.7-15.9-9.4-20.4-12.9s-13.6-11.2-30.9-14.1c-12.5-2.1-32.4-1.4-47.5-0.6c0,0.5,0,0.7,0,0.7s-61.6,15.3-73.9,28.2
	c-0.2,0.3-3.9,5-5.7,7.5c-10.2,14.2-24.2,36.3-40.8,57.1c-3.4,3.7-7.1,7.9-10.9,12.6c3.7-0.6,7.4-2.4,8.7-3.1
	C357.3,395.2,383.2,379.3,402.2,366.5z"/>
<path class="st20" d="M589.6,383c0,0-19.5-28.7-23.7-33C572.4,360.1,586.4,379.7,589.6,383z"/>
<path class="st20" d="M555.5,362.4c4.6,5,17.6,19.2,19.4,19.8c0.6-0.7,1.2-0.8,1.9-0.6C576.7,381.6,558.9,363.1,555.5,362.4z"/>
<path class="st20" d="M576.3,346.2c5,8.1,21.4,31,21.7,30C598,376.1,581.3,350.4,576.3,346.2z"/>
</svg>
