<?xml version="1.0" encoding="utf-8"?>
<!-- Generator: Adobe Illustrator 26.5.0, SVG Export Plug-In . SVG Version: 6.00 Build 0)  -->
<svg version="1.1" id="Layer_1" xmlns="http://www.w3.org/2000/svg" xmlns:xlink="http://www.w3.org/1999/xlink" x="0px" y="0px"
	 viewBox="0 0 1447.8 954" style="enable-background:new 0 0 1447.8 954;" xml:space="preserve">
<style type="text/css">
	.st0{fill:#877576;}
	.st1{fill:#190301;}
	.st2{fill:#221021;}
	.st3{fill:#B3448C;}
	.st4{fill:#A33A83;}
	.st5{fill:#702F5C;}
	.st6{fill:#4C1E3E;}
	.st7{fill:#002131;}
	.st8{fill:#030405;}
	.st9{fill:#D56540;}
	.st10{fill:#E2A38F;}
	.st11{fill:#A14A43;}
	.st12{fill:#D24459;}
	.st13{fill:#D39788;}
	.st14{fill:none;}
	.st15{fill:url(#SVGID_1_);}
	.st16{fill:url(#SVGID_00000149382914730060195890000017536162134627645856_);}
	.st17{fill:url(#SVGID_00000112593409003971569370000004614464923842707847_);}
	.st18{fill:url(#SVGID_00000072280897390241812340000004600554656245647802_);}
	.st19{fill:url(#SVGID_00000116937509123243637580000004659279164459002794_);}
	.st20{fill:#011F29;}
	.st21{fill:#9C9C9C;}
	.st22{fill:url(#SVGID_00000031168438011357016510000014298923879095803836_);}
	.st23{fill:#C99081;}
	.st24{fill:#9D5603;}
	.st25{fill:none;stroke:#9D5603;stroke-miterlimit:10;}
</style>
<path class="st0" d="M244.5,883.5V954h27v-74.5c0-3.6-2.9-6.5-6.5-6.5H123c-2.7,0-5,1.7-6,4h121C241.6,877,244.5,879.9,244.5,883.5z
	"/>
<path class="st1" d="M586.3,918.7c-4.7,10.7-9.3,22.5-13.8,35.3h42l-9-33L586.3,918.7z"/>
<path class="st2" d="M1079.9,20.5c0.4-8.5-0.8-15.2-2.8-20.5h-22.2h-83.8c-5.7,23.1-8.4,62.1-57.6,76c-80,0-85-75-85-75s2-0.4,5.6-1
	h-35.6c-0.3,17.9,5.2,45,29.1,81.1C874.5,152,856.5,197,856.5,197l161,9l36.7-9.7L1097,185c0,0,47.5-18,49.5-80
	S1078.3,51,1079.9,20.5z"/>
<path class="st3" d="M1054.2,196.3l-36.7,9.7l-161-9c0,0,18-45-28.9-115.9C803.7,45,798.1,17.9,798.4,0h-58.2
	c-12.6,11-30.7,33.9-38.8,78c-13,71-14,92-4,138s31,111,12,152s340.7,178,340.7,178l44.5,2.9l-36-96.7L1054.2,196.3z"/>
<path class="st3" d="M1160,56.1c22.5,50.9-13.5,77.2,0,124.5c13.5,47.3,57.2,197.1,31.4,275.7c-13.7,41.6-36.7,74-55.2,95.3l136.5,9
	L1403.5,249l23-209c0,0-2.6-21.7-11.3-40h-270.1C1144,6.3,1144.8,21.7,1160,56.1z"/>
<path class="st4" d="M1160,180.7c-13.5-47.3,22.5-73.7,0-124.5c-15.2-34.4-16-49.8-14.9-56.1h-67.9c2,5.3,3.2,12,2.8,20.5
	c-1.6,30.5,68.6,22.5,66.6,84.5s-49.5,80-49.5,80l-42.8,11.3l4.5,255.9l36,96.7l41.4,2.7c18.6-21.3,41.5-53.7,55.2-95.3
	C1217.2,377.7,1173.5,228,1160,180.7z"/>
<path class="st5" d="M713.5,800c23-4,85,2,122,3s56-25,56-25l-9.5-22.1L775.5,761l-146,29l-55,95l-8,36.5c11.5,2.7,26.9,6.3,45,10.4
	l0,0C622.4,820.9,690.5,804,713.5,800z"/>
<polygon class="st6" points="529.5,495.3 405.8,565 422.5,705 497,678.2 608.5,620 664.5,581 658.9,456.4 "/>
<path class="st5" d="M638.4,492.8c0,0-155.9,55.2-196.9,60.2s-76-34-76-34l2-13c0,0,3-12,69-33s257.1-78,257.1-78L638.4,492.8z"/>
<path class="st3" d="M474.5,951l-26-33l-25.3-189.5l19.3-77.5c0,0,47-151-45-152s-74,106-74,106s21,165,37,234
	c13.3,57.5,65.6,101.9,82.6,115h20.2L474.5,951z"/>
<path class="st7" d="M168.5,205c0,0,109,79,105,216c-2,31-12,84,16,52s49,17,36,40s-16,35-56,132c-6,16-24,40,11,27s64,15,8,77
	c-24,24-75,27-35,48s-37,90-37,90H132c0,0-109-31.5-58-39.5s63,15,0-70s-74-173-74-173l88,66c0,0,66,42,29-36s-73-91-31-103
	s59-11,28-44s-60-92-16-98s48,37,53-26S168,293.5,168.5,205z"/>
<path class="st8" d="M188.5,870c0,0-7-107,41-133c28-14,45-30,35-25s-61,36-61,36s-8,7-7-18s9-107,9-107l47-54c0,0,21-26,0-8
	s-47,51-47,51s-6-82,1-131s27-129-10-219c14,70,26.5,89.5,2.5,210.5c-23-21-55-12-75-28c-3,8,26,16,26,16s28,5,42,15c1,8,1,42,2,77
	s4,107-6,128c-9-21-29-58-54-90c5,24,39,62,51,99c1,22,0,67,0,67s7,18-25,2s-82-29-117-85c8,30,62,79,130,103c6,4,9-3,9,25
	s-3,81-3,81L188.5,870z"/>
<g>
	<path class="st9" d="M959.9,31.2l-20.2,14.2L908,72.5l2.8,8.6h46.6C955.1,61.4,957.7,42.5,959.9,31.2z"/>
	<path class="st10" d="M977,128.5c-12.2-13.6-17.6-30.8-19.6-47.4h-46.6l9.2,28.4c0,0,9,28-13,30c-1.8,0.2-3.7,0.3-5.5,0.4v17.4
		c0,0-5,27.7,31,27.7s53-27,53-27s4.2-7.1,8.5-15.1C988.1,139.2,982.3,134.4,977,128.5z"/>
</g>
<path class="st11" d="M1000.8,573.3c0,0-2.1,0.3-5.7,1.7L1000.8,573.3L1000.8,573.3z"/>
<path class="st4" d="M1106.5,580.7c0,0,13.1-10.1,29.6-29l-41.4-2.7L1106.5,580.7z"/>
<path class="st12" d="M882,44.5c12,5,26-12,27-24c-16,19-34,13-34,13S870,39.5,882,44.5z"/>
<path class="st13" d="M885,13.5c6,0,6.5-7.3,6.5-7.3L880,7.5C880,7.5,879,13.5,885,13.5z"/>
<path class="st14" d="M713.5,800c23-4,85,2,122,3c19.4,0.5,33.8-6.3,43.1-13c3.2-7.5,6.1-14.5,9-21l-0.2-0.5
	c-15.7,6.9-44.7,17.3-82.9,20.5c-59,5-108,2-130,16c-18,11.5-54.3,35.8-88.2,113.7l19.1,2.3l9,33h95.9
	c-36.5-7.9-70.9-15.7-98.8-22.1C622.4,820.9,690.5,804,713.5,800z"/>
<path class="st14" d="M1158.3,954l-2.5-11.1c-12.7,4.2-25.6,7.9-38.5,11.1H1158.3z"/>
<path class="st1" d="M1155.8,942.9l2.5,11.1h75.1l-2.8-43.3C1207.2,923.8,1181.8,934.4,1155.8,942.9z"/>
<path class="st4" d="M887.4,768.5l0.2,0.5c0.1-0.2,0.2-0.5,0.3-0.7C887.7,768.3,887.6,768.4,887.4,768.5z"/>
<path class="st4" d="M875.9,796.4c0.9-2.2,1.8-4.3,2.7-6.5c-9.4,6.7-23.8,13.5-43.1,13c-37-1-99-7-122-3s-91.1,20.9-102,131.9
	c28,6.4,62.3,14.2,98.8,22.1h155.5C834.2,900.4,849.9,858.6,875.9,796.4z"/>
<linearGradient id="SVGID_1_" gradientUnits="userSpaceOnUse" x1="441.3456" y1="711.7767" x2="562.7471" y2="763.9527">
	<stop  offset="0" style="stop-color:#005B5E"/>
	<stop  offset="1" style="stop-color:#011F29"/>
</linearGradient>
<path class="st15" d="M569,678.2c57.5-34.1,99.9-43.7,121.2-46.2L641.5,565l-97,31c0,0-115,38-125,157
	c-6.8,80.4,18.9,156.8,36.3,197.8L474.5,835C474.5,835,484.5,728.3,569,678.2z"/>
<linearGradient id="SVGID_00000004540304194385838740000009449992504665686689_" gradientUnits="userSpaceOnUse" x1="493.3646" y1="758.3531" x2="759.2479" y2="625.4396">
	<stop  offset="0" style="stop-color:#005B5E"/>
	<stop  offset="1" style="stop-color:#011F29"/>
</linearGradient>
<path style="fill:url(#SVGID_00000004540304194385838740000009449992504665686689_);" d="M744.3,660.3l5.7-28.4l-44.6-0.9
	c0,0-5.3-0.3-15.3,0.9l29.9,41.1L744.3,660.3z"/>
<linearGradient id="SVGID_00000016784308921485544350000009578223242154045621_" gradientUnits="userSpaceOnUse" x1="563.5911" y1="898.8358" x2="829.4743" y2="765.9222">
	<stop  offset="0" style="stop-color:#005B5E"/>
	<stop  offset="1" style="stop-color:#011F29"/>
</linearGradient>
<path style="fill:url(#SVGID_00000016784308921485544350000009578223242154045621_);" d="M455.8,950.8l-0.5,3.2h1.9
	C456.7,953,456.2,951.9,455.8,950.8z"/>
<path class="st4" d="M543.4,916c0,0,5.5,1.3,15.3,3.6c1.2-10.8,2.8-23.2,4.6-37.3L543.4,916z"/>
<linearGradient id="SVGID_00000162349166812562952030000015981664253359928218_" gradientUnits="userSpaceOnUse" x1="432.5282" y1="732.2928" x2="553.9297" y2="784.4688">
	<stop  offset="0" style="stop-color:#005B5E"/>
	<stop  offset="1" style="stop-color:#011F29"/>
</linearGradient>
<path style="fill:url(#SVGID_00000162349166812562952030000015981664253359928218_);" d="M490.8,954l78.3-107.7
	C592.7,739,668,700.5,668,700.5l52.1-27.5l-29.9-41.1C669,634.5,626.5,644,569,678.2C484.5,728.3,474.5,835,474.5,835l-18.7,115.8
	c0.5,1.1,0.9,2.2,1.4,3.2H490.8z"/>
<linearGradient id="SVGID_00000144296916160306476350000005697560345165295234_" gradientUnits="userSpaceOnUse" x1="529.9205" y1="831.4804" x2="795.8038" y2="698.5669">
	<stop  offset="0" style="stop-color:#005B5E"/>
	<stop  offset="1" style="stop-color:#011F29"/>
</linearGradient>
<path style="fill:url(#SVGID_00000144296916160306476350000005697560345165295234_);" d="M690.2,631.9
	C669,634.5,626.5,644,569,678.2C484.5,728.3,474.5,835,474.5,835l-18.7,115.8c0.5,1.1,0.9,2.2,1.4,3.2h33.7h64.3
	c0.8-9.3,1.9-20.6,3.5-34.4c1.2-10.8,2.8-23.2,4.6-37.3c0.5-4.1,1.1-8.4,1.7-12.8c1.1-8.1,2.5-15.8,4.1-23.2
	C592.7,739,668,700.5,668,700.5l52.1-27.5L690.2,631.9z"/>
<path class="st20" d="M558.7,919.6c-1.6,13.8-2.7,25.1-3.5,34.4h2.1l6.3-33.2C561.8,920.4,560.2,920,558.7,919.6z"/>
<path class="st20" d="M720.1,673l20.4,28l-77.2,55.2L828.5,733l71.7,7.1c13.6-30.9,24.9-56.1,41.3-98.1c0.8-2.1,1.7-4.1,2.5-6.1
	l-193.9-4l-5.7,28.4L720.1,673z"/>
<path class="st20" d="M563.3,882.3l55.9-94.6L603.5,799l-34.4,47.3c-1.6,7.4-3,15.1-4.1,23.2C564.4,873.9,563.8,878.2,563.3,882.3z"
	/>
<path class="st20" d="M775.5,761l-146,29l-55,95l-6.9,31.4l18.7,2.3c34-77.9,70.2-102.2,88.2-113.7c22-14,71-11,130-16
	c38.2-3.2,67.2-13.6,82.9-20.5l-5.4-12.5L775.5,761z"/>
<path class="st20" d="M566.5,921.5c-1-0.2-2-0.5-2.9-0.7l-6.3,33.2h15.2c4.5-12.9,9.2-24.6,13.8-35.3l-18.7-2.3L566.5,921.5z"/>
<path class="st20" d="M563.3,882.3c-1.9,14.1-3.4,26.5-4.6,37.3c1.5,0.4,3.2,0.8,4.9,1.2l0.9-4.8l3.1,0.4l6.9-31.4l55-95l146-29
	l106.5-5.1l5.4,12.5c0.2-0.1,0.3-0.1,0.5-0.2c4.4-10.2,8.4-19.4,12.3-28.2l-71.7-7.1l-165.2,23.2l-44,31.5L563.3,882.3z"/>
<path class="st20" d="M567.6,916.4l-3.1-0.4l-0.9,4.8c0.9,0.2,1.9,0.4,2.9,0.7L567.6,916.4z"/>
<path class="st20" d="M619.2,787.8l12.3-20.8l-2-6l33.8-4.8l77.2-55.2l-20.4-28L668,700.5c0,0-75.3,38.5-98.9,145.8l34.4-47.3
	L619.2,787.8z"/>
<polygon class="st20" points="631.5,767 619.2,787.8 663.3,756.2 629.5,761 "/>
<path class="st21" d="M116.5,879.5c0-0.9,0.2-1.7,0.5-2.5H96c-3.6,0-6.5,2.9-6.5,6.5V954h27V879.5z"/>
<path class="st21" d="M116.5,954h128v-70.5c0-3.6-2.9-6.5-6.5-6.5H117c-0.3,0.8-0.5,1.6-0.5,2.5V954z"/>
<path class="st6" d="M1038.5,751c-5.5,7.5-3.5,8.5-34.5,40.5c-29,30-54.6,29.2-85.7,75.5c6.3,28.6,10,63,0.1,87h199
	c12.8-3.3,25.7-6.9,38.5-11.1l-8.3-36.9l81.3-23.5l1.8,28.2c7.2-4,14.1-8.2,20.9-12.7c129-86,170-444,170-444s33-186,25-347
	c-8-104-43.4-93.5-43.4-93.5S1326.5,3,1322.5,121c0,0-21.1,256.3-46.8,371.6c25.6-4.4,49.8-5.3,61.8,3.1c32,22.3,29,37.3,29,37.3
	s6,8-16,17s-273.2,81.9-273.2,81.9l-3.5-0.2C1076.8,718.3,1043.9,743.7,1038.5,751z"/>
<linearGradient id="SVGID_00000022520168256212169610000004541484362259968940_" gradientUnits="userSpaceOnUse" x1="745.4221" y1="329.057" x2="989.6702" y2="474.2326">
	<stop  offset="0" style="stop-color:#CF9A01"/>
	<stop  offset="1" style="stop-color:#BF7500"/>
</linearGradient>
<path style="fill:url(#SVGID_00000022520168256212169610000004541484362259968940_);" d="M1077,206.5l-13-52c0,0-37.3,9.3-70-11.6
	c-4.3,8-8.5,15.1-8.5,15.1s-17,27-53,27s-31-27.7-31-27.7v-17.4c-20.5,1.4-42.3,1-51.5,16.6c-2.2,3.8-4.5,8.2-6.8,12.8
	c-6.7,12.1-37.2,68.1-40.7,87.7c-1.6,8.5-2.5,16.2-3.1,22.3c-0.7,7.7-0.9,13.1-1,14.9c15.1-0.7,35-1.5,47.5,0.6
	c17.3,3,26.3,10.6,30.9,14.1s16.7,9.1,20.4,12.9c3.7,3.7,22.5,28.7,25.6,35c3.1,6.2,12.5,15.6,9.1,18.7c-3.4,3.1-7.5,3.1-11.9,0.6
	c2.8,1.9,5.9,5.3,3.7,6.9s-6.1,5.6-12.1,0c0.8,3.7-5.1,4.4-8.5,1.9c-1.9-1.3-3.3-2.8-4.4-3.2c-0.7-0.3-1.3-0.2-1.9,0.6
	c-0.2,0.3-0.4,0.6-0.6,1.1c-1.6,3.7-4.1,4.1-10.3,1.9s-33.1-11.6-37.2-14.4s-11.2-2.8-15.6-4.1s-20-5-22.5-6.6
	c-2.5-1.6-17.6-6.8-21.5-9.8c-3.8-3-9.1-9.2-15.4-6.1c-6.2,3.1-30.6,9.4-49.6,22.2s-45,28.7-48.4,30.6c-1.4,0.7-5.1,2.5-8.7,3.1
	c-23.7,29.3-51.8,77.9-45.2,138.3c11,101,65,119,65,119s22,25,156,20c50-2,94-24,94-24l200-94l6-44L1077,206.5z"/>
<path class="st6" d="M1147.5,906l8.3,36.9c26-8.5,51.4-19.1,74.8-32.1l-1.8-28.2L1147.5,906z"/>
<g>
	<path class="st10" d="M971.1,581.7L946,524.2l-66.2,24l-22.2,7.9c0,0-7.4,3.9-15.1,1.4c-7.6-2.5-17.6-6.8-19-8.6
		c-1.4-1.7-11.4-5.8-14.2-8.3c-2.9-2.6-4.7-3.4-10-4c-5.3-0.6-13-1.7-13-1.7s-17.9-1.8-25.2-6.8c-7.3-5-17.1-5.8-17.7-3
		c-0.6,2.8,1.6,13.5,5.5,15.5c3.9,2,14.1,9.9,18.4,10.4s10.8,0,13.5,3.8c2.7,3.8,3.3,12.7-7,16.3c-10.2,3.6-12.3,5.2-23.1,5.2
		s-28.8-0.2-38-2.9c-7.8-2.3-14.1,2.1-12.4,5.4c-3.1-0.4-5.5-0.1-6.2,1.3c-1.9,3.9-1,7.4,4.6,9.6c-1.7,0.3-3,1.2-2.9,3
		c0.2,2.6,2,4.3,4.2,5.3c-2.6-0.2-4.6,0.1-3.8,1.8c2.1,4,11.6,6.7,16.1,8.9s10.9,7.3,16.8,8.6c5.9,1.3,13.7,2.2,19.1,4.8
		c5.4,2.5,18.1,5,25.7,4.9s36.8-8.4,36.8-8.4s8.1-4.4,16.1-4.8s10.8-5.4,21.2-7.4c10.4-2,7.2-2,15.7-6.4s17.2-11.3,36.9-11.9
		c0.6,0,1.2-0.1,1.8-0.2L971.1,581.7z"/>
	<path class="st23" d="M720.5,588c0,0-16.4-1.1-20.2-9.1C705.7,583.1,708.5,586,720.5,588z"/>
	<path class="st23" d="M721.5,596c0,0-13.6,0.6-22.8-6.2C706.3,593.2,710.5,596,721.5,596z"/>
	<path class="st23" d="M713.5,605c0,0-8.9-1.9-13.4-6.9C702.9,599.9,707.5,604,713.5,605z"/>
</g>
<path class="st6" d="M898.5,954h19.9c9.9-24.1,6.2-58.4-0.1-87c-2.1,3.1-4.2,6.5-6.4,10C890.2,913.1,893.4,939.6,898.5,954z"/>
<path class="st24" d="M957.5,599c0,0,189-76,212.1-109.7c23.1-33.7,13.9-113.3,13.9-113.3s-16-79-28-116s-26-67-43-92s-43-16-43-16
	s-25.7,0.5-21.1,46s23,121.8,23,121.8l18.8,75.2c0,0,17.7,46.2-23.3,73.3c-41,27.2-123,54.9-123,54.9s1,32.4,5.5,43.8
	C954,578.5,958,590.5,957.5,599z"/>
<path class="st3" d="M908.7,740.9l20.8,2.1l-27,71c0,0,9.3,23.5,15.8,53c31.1-46.2,56.7-45.5,85.7-75.5c31-32,29-33,34.5-40.5
	c5.4-7.3,38.3-32.7,35.3-119.3c-0.1-2.2-0.2-4.4-0.3-6.7c-0.2-2.7-0.6-5.3-1.1-7.8c-9.8-45.1-71.6-44-71.6-44l-5.7,1.7
	c-7.1,2.9-20,10.2-33.4,28.7c-6,8.3-12,18.8-17.7,32.2l5.5,0.1L908.7,740.9z"/>
<path class="st3" d="M891.5,778l-3.9-9.1c-2.8,6.6-5.8,13.5-9,21C887.2,783.9,891.5,778,891.5,778z"/>
<path class="st3" d="M887.9,768.3c-0.1,0.2-0.2,0.5-0.3,0.7l3.9,9.1c0,0-4.3,5.9-12.9,12c-0.9,2.1-1.8,4.3-2.7,6.5
	c-26,62.1-41.7,104-10.1,157.6h32.7c-5.2-14.4-8.4-40.9,13.4-77c2.2-3.6,4.3-6.9,6.4-10c-6.5-29.5-15.8-53-15.8-53l27-71l-20.8-2.1
	l-8.2,21.1C900.5,762,896.1,764.6,887.9,768.3z"/>
<path class="st3" d="M900.2,740.1l8.5,0.8L949.5,636l-5.5-0.1c-0.8,2-1.7,4-2.5,6.1C925.1,684,913.8,709.2,900.2,740.1z"/>
<path class="st3" d="M900.5,762l8.2-21.1l-8.5-0.8c-3.9,8.8-7.9,18-12.3,28.2C896.1,764.6,900.5,762,900.5,762z"/>
<path class="st5" d="M1366.5,533c0,0,3-15-29-37.3c-12-8.4-36.2-7.5-61.8-3.1c-42.6,7.3-89.1,24.4-89.1,24.4l-185.8,56.3
	c0,0,61.8-1.1,71.6,44c0.5,2.4,0.9,5,1.1,7.8c0.1,2.3,0.2,4.5,0.3,6.7l3.5,0.2c0,0,251.2-72.9,273.2-81.9S1366.5,533,1366.5,533z"/>
<path class="st10" d="M834.5,0h-0.5h-5.6v1c0,0,5,75,85,75c49.2-13.9,51.9-52.9,57.6-76H834.5z M880,7.5l11.5-1.3
	c0,0-0.5,7.3-6.5,7.3S880,7.5,880,7.5z M882,44.5c-12-5-7-11-7-11s18,6,34-13C908,32.5,894,49.5,882,44.5z"/>
<path class="st25" d="M944,523.2"/>
<path class="st10" d="M724.3,366.5c19-12.8,43.4-19,49.6-22.2c6.2-3.1,11.6,3.1,15.4,6.1c3.8,3,19,8.2,21.5,9.8
	c2.5,1.6,18.1,5.3,22.5,6.6s11.6,1.2,15.6,4.1s30.9,12.2,37.2,14.4s8.7,1.9,10.3-1.9c0.2-0.5,0.4-0.8,0.6-1.1
	c-1.8-0.6-14.8-14.8-19.4-19.8c3.5,0.8,21.3,19.3,21.3,19.3c1.1,0.4,2.5,1.9,4.4,3.2c3.4,2.5,9.3,1.9,8.5-1.9
	c-3.2-3.3-17.2-22.9-23.7-33c4.2,4.2,23.7,33,23.7,33c6,5.6,9.9,1.6,12.1,0s-0.9-5-3.7-6.9c-0.3,1-16.7-21.9-21.7-30
	c5,4.2,21.7,30,21.7,30c4.4,2.5,8.4,2.5,11.9-0.6c3.4-3.1-5.9-12.5-9.1-18.7c-3.1-6.2-21.9-31.2-25.6-35
	c-3.7-3.7-15.9-9.4-20.4-12.9s-13.6-11.2-30.9-14.1c-12.5-2.1-32.4-1.4-47.5-0.6c0,0.5,0,0.7,0,0.7s-61.6,15.3-73.9,28.2
	c-0.2,0.3-3.9,5-5.7,7.5c-10.2,14.2-24.2,36.3-40.8,57.1c-3.4,3.7-7.1,7.9-10.9,12.6c3.7-0.6,7.4-2.4,8.7-3.1
	C679.4,395.2,705.3,379.3,724.3,366.5z"/>
<path class="st23" d="M911.7,383c0,0-19.5-28.7-23.7-33C894.5,360.1,908.5,379.7,911.7,383z"/>
<path class="st23" d="M877.6,362.4c4.6,5,17.6,19.2,19.4,19.8c0.6-0.7,1.2-0.8,1.9-0.6C898.8,381.6,881,363.1,877.6,362.4z"/>
<path class="st23" d="M898.4,346.2c5,8.1,21.4,31,21.7,30C920.1,376.1,903.4,350.4,898.4,346.2z"/>
</svg>
